<mxfile host="drawio.internal.loganmarchione.xyz" modified="2023-09-21T18:34:57.214Z" agent="Mozilla/5.0 (X11; Linux x86_64; rv:109.0) Gecko/20100101 Firefox/117.0" etag="VhiaZD_VhApOHwEYKwLY" version="21.7.5" type="device" pages="2">
  <diagram name="Page-1" id="5EYflF9Djunp2OtPY6sF">
    <mxGraphModel dx="2440" dy="1313" grid="1" gridSize="10" guides="1" tooltips="1" connect="1" arrows="1" fold="1" page="1" pageScale="1" pageWidth="1100" pageHeight="850" math="0" shadow="0">
      <root>
        <mxCell id="0" />
        <mxCell id="1" parent="0" />
        <mxCell id="Rfjf2EXHm2gB7qsc8450-35" value="" style="rounded=1;whiteSpace=wrap;html=1;" parent="1" vertex="1">
          <mxGeometry x="20" y="190" width="320" height="160" as="geometry" />
        </mxCell>
        <mxCell id="Rfjf2EXHm2gB7qsc8450-6" value="" style="rounded=0;whiteSpace=wrap;html=1;" parent="1" vertex="1">
          <mxGeometry x="530" y="20" width="480" height="410" as="geometry" />
        </mxCell>
        <mxCell id="Rfjf2EXHm2gB7qsc8450-2" value="Browser" style="shape=image;verticalLabelPosition=bottom;verticalAlign=top;imageAspect=0;aspect=fixed;image=data:image/svg+xml,PHN2ZyB4bWxucz0iaHR0cDovL3d3dy53My5vcmcvMjAwMC9zdmciIHZpZXdCb3g9IjAgMCA0OCA0OCI+PGRlZnM+PHJhZGlhbEdyYWRpZW50IGlkPSJtb3ppbGxhZmlyZWZveGJyb3dzZXJfc3ZnX19iIiBjeD0iMzkyLjgxIiBjeT0iNjEuMTYiIHI9IjU1NC4xNSIgZ3JhZGllbnRUcmFuc2Zvcm09InNjYWxlKDEuMTA4NyAuOTAxOTMpIiBncmFkaWVudFVuaXRzPSJ1c2VyU3BhY2VPblVzZSI+PHN0b3Agb2Zmc2V0PSIuMTMiIHN0b3AtY29sb3I9IiNmZmJkNGYiLz48c3RvcCBvZmZzZXQ9Ii4yOCIgc3RvcC1jb2xvcj0iI2ZmOTgwZSIvPjxzdG9wIG9mZnNldD0iLjQ3IiBzdG9wLWNvbG9yPSIjZmYzNzUwIi8+PHN0b3Agb2Zmc2V0PSIuNzgiIHN0b3AtY29sb3I9IiNlYjA4NzgiLz48c3RvcCBvZmZzZXQ9Ii44NiIgc3RvcC1jb2xvcj0iI2U1MDA4MCIvPjwvcmFkaWFsR3JhZGllbnQ+PHJhZGlhbEdyYWRpZW50IGlkPSJtb3ppbGxhZmlyZWZveGJyb3dzZXJfc3ZnX19jIiBjeD0iMjI2LjU2IiBjeT0iMjkwLjE4IiByPSI1NTQuMTUiIGdyYWRpZW50VHJhbnNmb3JtPSJzY2FsZSgxLjEwODcgLjkwMTkzKSIgZ3JhZGllbnRVbml0cz0idXNlclNwYWNlT25Vc2UiPjxzdG9wIG9mZnNldD0iLjMiIHN0b3AtY29sb3I9IiM5NjBlMTgiLz48c3RvcCBvZmZzZXQ9Ii4zNSIgc3RvcC1jb2xvcj0iI2IxMTkyNyIgc3RvcC1vcGFjaXR5PSIuNzQiLz48c3RvcCBvZmZzZXQ9Ii40MyIgc3RvcC1jb2xvcj0iI2RiMjkzZCIgc3RvcC1vcGFjaXR5PSIuMzQiLz48c3RvcCBvZmZzZXQ9Ii41IiBzdG9wLWNvbG9yPSIjZjUzMzRiIiBzdG9wLW9wYWNpdHk9Ii4wOSIvPjxzdG9wIG9mZnNldD0iLjUzIiBzdG9wLWNvbG9yPSIjZmYzNzUwIiBzdG9wLW9wYWNpdHk9IjAiLz48L3JhZGlhbEdyYWRpZW50PjxyYWRpYWxHcmFkaWVudCBpZD0ibW96aWxsYWZpcmVmb3hicm93c2VyX3N2Z19fZCIgY3g9IjM5NS40NCIgY3k9Ii0xNy45NzMiIHI9IjIxMC4yMSIgZ3JhZGllbnRUcmFuc2Zvcm09InNjYWxlKC43Njc0NyAxLjMwMykiIGdyYWRpZW50VW5pdHM9InVzZXJTcGFjZU9uVXNlIj48c3RvcCBvZmZzZXQ9Ii4xMyIgc3RvcC1jb2xvcj0iI2ZmZjQ0ZiIvPjxzdG9wIG9mZnNldD0iLjUzIiBzdG9wLWNvbG9yPSIjZmY5ODBlIi8+PC9yYWRpYWxHcmFkaWVudD48cmFkaWFsR3JhZGllbnQgaWQ9Im1vemlsbGFmaXJlZm94YnJvd3Nlcl9zdmdfX2UiIGN4PSIyMDYuMjciIGN5PSIzNzMuMjQiIHI9IjIyMy41IiBncmFkaWVudFRyYW5zZm9ybT0ic2NhbGUoLjk1NTIgMS4wNDY5KSIgZ3JhZGllbnRVbml0cz0idXNlclNwYWNlT25Vc2UiPjxzdG9wIG9mZnNldD0iLjM1IiBzdG9wLWNvbG9yPSIjM2E4ZWU2Ii8+PHN0b3Agb2Zmc2V0PSIuNjciIHN0b3AtY29sb3I9IiM5MDU5ZmYiLz48c3RvcCBvZmZzZXQ9IjEiIHN0b3AtY29sb3I9IiNjMTM5ZTYiLz48L3JhZGlhbEdyYWRpZW50PjxyYWRpYWxHcmFkaWVudCBpZD0ibW96aWxsYWZpcmVmb3hicm93c2VyX3N2Z19fZiIgY3g9IjI3MS42MiIgY3k9IjIwMC45IiByPSIxMzEuODYiIGdyYWRpZW50VHJhbnNmb3JtPSJzY2FsZSguOTU1MiAxLjA0NjkpIiBncmFkaWVudFVuaXRzPSJ1c2VyU3BhY2VPblVzZSI+PHN0b3Agb2Zmc2V0PSIuMjEiIHN0b3AtY29sb3I9IiM5MDU5ZmYiIHN0b3Atb3BhY2l0eT0iMCIvPjxzdG9wIG9mZnNldD0iLjk3IiBzdG9wLWNvbG9yPSIjNmUwMDhiIiBzdG9wLW9wYWNpdHk9Ii42Ii8+PC9yYWRpYWxHcmFkaWVudD48cmFkaWFsR3JhZGllbnQgaWQ9Im1vemlsbGFmaXJlZm94YnJvd3Nlcl9zdmdfX2ciIGN4PSIyNDAuNjEiIGN5PSIzNi44MDciIHI9IjE3MC4wMiIgZ3JhZGllbnRUcmFuc2Zvcm09InNjYWxlKC45OTgyMyAxLjAwMTgpIiBncmFkaWVudFVuaXRzPSJ1c2VyU3BhY2VPblVzZSI+PHN0b3Agb2Zmc2V0PSIuMSIgc3RvcC1jb2xvcj0iI2ZmZTIyNiIvPjxzdG9wIG9mZnNldD0iLjc5IiBzdG9wLWNvbG9yPSIjZmY3MTM5Ii8+PC9yYWRpYWxHcmFkaWVudD48cmFkaWFsR3JhZGllbnQgaWQ9Im1vemlsbGFmaXJlZm94YnJvd3Nlcl9zdmdfX2giIGN4PSIzNjIuMDgiIGN5PSItODEuNzA5IiByPSI3NDIuMzkiIGdyYWRpZW50VHJhbnNmb3JtPSJzY2FsZSgxLjA5MTUgLjkxNjIxKSIgZ3JhZGllbnRVbml0cz0idXNlclNwYWNlT25Vc2UiPjxzdG9wIG9mZnNldD0iLjExIiBzdG9wLWNvbG9yPSIjZmZmNDRmIi8+PHN0b3Agb2Zmc2V0PSIuNDYiIHN0b3AtY29sb3I9IiNmZjk4MGUiLz48c3RvcCBvZmZzZXQ9Ii43MiIgc3RvcC1jb2xvcj0iI2ZmMzY0NyIvPjxzdG9wIG9mZnNldD0iLjkiIHN0b3AtY29sb3I9IiNlMzE1ODciLz48L3JhZGlhbEdyYWRpZW50PjxyYWRpYWxHcmFkaWVudCBpZD0ibW96aWxsYWZpcmVmb3hicm93c2VyX3N2Z19faSIgY3g9IjQ3NS41OSIgY3k9Ii00MS41ODgiIHI9Ijc3OS45MSIgZ3JhZGllbnRUcmFuc2Zvcm09InNjYWxlKC42ODgxOCAxLjQ1MzEpIiBncmFkaWVudFVuaXRzPSJ1c2VyU3BhY2VPblVzZSI+PHN0b3Agb2Zmc2V0PSIwIiBzdG9wLWNvbG9yPSIjZmZmNDRmIi8+PHN0b3Agb2Zmc2V0PSIuMyIgc3RvcC1jb2xvcj0iI2ZmOTgwZSIvPjxzdG9wIG9mZnNldD0iLjU3IiBzdG9wLWNvbG9yPSIjZmYzNjQ3Ii8+PHN0b3Agb2Zmc2V0PSIuNzQiIHN0b3AtY29sb3I9IiNlMzE1ODciLz48L3JhZGlhbEdyYWRpZW50PjxyYWRpYWxHcmFkaWVudCBpZD0ibW96aWxsYWZpcmVmb3hicm93c2VyX3N2Z19faiIgY3g9IjIzOS44IiBjeT0iOTkuMDA2IiByPSI0NjEuMTEiIGdyYWRpZW50VHJhbnNmb3JtPSJzY2FsZSgxLjAwODkgLjk5MTE4KSIgZ3JhZGllbnRVbml0cz0idXNlclNwYWNlT25Vc2UiPjxzdG9wIG9mZnNldD0iLjE0IiBzdG9wLWNvbG9yPSIjZmZmNDRmIi8+PHN0b3Agb2Zmc2V0PSIuNDgiIHN0b3AtY29sb3I9IiNmZjk4MGUiLz48c3RvcCBvZmZzZXQ9Ii42NiIgc3RvcC1jb2xvcj0iI2ZmMzY0NyIvPjxzdG9wIG9mZnNldD0iLjkiIHN0b3AtY29sb3I9IiNlMzE1ODciLz48L3JhZGlhbEdyYWRpZW50PjxyYWRpYWxHcmFkaWVudCBpZD0ibW96aWxsYWZpcmVmb3hicm93c2VyX3N2Z19fayIgY3g9IjM0My4wNCIgY3k9IjEzMi4wMSIgcj0iNTI4Ljg5IiBncmFkaWVudFRyYW5zZm9ybT0ic2NhbGUoMS4wNTczIC45NDU4NCkiIGdyYWRpZW50VW5pdHM9InVzZXJTcGFjZU9uVXNlIj48c3RvcCBvZmZzZXQ9Ii4wOSIgc3RvcC1jb2xvcj0iI2ZmZjQ0ZiIvPjxzdG9wIG9mZnNldD0iLjYzIiBzdG9wLWNvbG9yPSIjZmY5ODBlIi8+PC9yYWRpYWxHcmFkaWVudD48bGluZWFyR3JhZGllbnQgaWQ9Im1vemlsbGFmaXJlZm94YnJvd3Nlcl9zdmdfX2EiIHgxPSI0NDEuOTgiIHgyPSI2Mi4xMjYiIHkxPSI3NS42MzEiIHkyPSI0NTQuMjciIGdyYWRpZW50VHJhbnNmb3JtPSJzY2FsZSguOTgzNzQgMS4wMTY1KSIgZ3JhZGllbnRVbml0cz0idXNlclNwYWNlT25Vc2UiPjxzdG9wIG9mZnNldD0iLjA1IiBzdG9wLWNvbG9yPSIjZmZmNDRmIi8+PHN0b3Agb2Zmc2V0PSIuMzciIHN0b3AtY29sb3I9IiNmZjk4MGUiLz48c3RvcCBvZmZzZXQ9Ii41MyIgc3RvcC1jb2xvcj0iI2ZmMzY0NyIvPjxzdG9wIG9mZnNldD0iLjciIHN0b3AtY29sb3I9IiNlMzE1ODciLz48L2xpbmVhckdyYWRpZW50PjxsaW5lYXJHcmFkaWVudCBpZD0ibW96aWxsYWZpcmVmb3hicm93c2VyX3N2Z19fbCIgeDE9IjQwNi42MSIgeDI9IjEwNC4wOSIgeTE9IjY4LjMxMiIgeTI9IjQwOS44NyIgZ3JhZGllbnRUcmFuc2Zvcm09InNjYWxlKC45ODM3NCAxLjAxNjUpIiBncmFkaWVudFVuaXRzPSJ1c2VyU3BhY2VPblVzZSI+PHN0b3Agb2Zmc2V0PSIuMTciIHN0b3AtY29sb3I9IiNmZmY0NGYiIHN0b3Atb3BhY2l0eT0iLjgiLz48c3RvcCBvZmZzZXQ9Ii42IiBzdG9wLWNvbG9yPSIjZmZmNDRmIiBzdG9wLW9wYWNpdHk9IjAiLz48L2xpbmVhckdyYWRpZW50PjwvZGVmcz48cGF0aCBmaWxsPSJ1cmwoI21vemlsbGFmaXJlZm94YnJvd3Nlcl9zdmdfX2EpIiBkPSJNNDc4LjcxIDE2Ni4zNWMtMTAuNDQ1LTI1LjEyNC0zMS42LTUyLjI0OC00OC4yMTItNjAuODIxIDEzLjUyIDI2LjUwNSAyMS4zNDUgNTMuMDkzIDI0LjMzNSA3Mi45MzYgMCAuMDM5LjAxNS4xMzYuMDQ3LjRDNDI3LjcwNSAxMTEuMTMyIDM4MS42MjYgODMuODIgMzQ0IDI0LjM1NWMtMS45LTMuMDA3LTMuODA1LTYuMDIyLTUuNjYxLTkuMmE3My43MTYgNzMuNzE2IDAgMCAxLTIuNjQ2LTQuOTcyQTQzLjcgNDMuNyAwIDAgMSAzMzIuMS42NzdhLjYyNi42MjYgMCAwIDAtLjU0Ni0uNjQ0LjgxOC44MTggMCAwIDAtLjQ1MSAwYy0uMDM0LjAxMi0uMDg0LjA1MS0uMTIuMDY1LS4wNTMuMDIxLS4xMi4wNjktLjE3Ni4xLjAyNy0uMDM2LjA4My0uMTE3LjEtLjEzNi02MC4zNyAzNS4zNTYtODAuODUgMTAwLjc2LTgyLjczMiAxMzMuNDhhMTIwLjI1IDEyMC4yNSAwIDAgMC02Ni4xNDIgMjUuNDg4IDcxLjM1NSA3MS4zNTUgMCAwIDAtNi4yMjUtNC43IDExMS4zNCAxMTEuMzQgMCAwIDEtLjY3NC01OC43MzJjLTI0LjY4OCAxMS4yNDEtNDMuODkgMjkuMDEtNTcuODUgNDQuN2gtLjExMWMtOS41MjctMTIuMDY3LTguODU1LTUxLjg3My04LjMxMi02MC4xODQtLjExNC0uNTE1LTcuMTA3IDMuNjMtOC4wMjMgNC4yNTVhMTc1LjA3IDE3NS4wNyAwIDAgMC0yMy40ODYgMjAuMTIgMjEwLjQ4IDIxMC40OCAwIDAgMC0yMi40NDIgMjYuOTEzYzAgLjAxMi0uMDA3LjAyNi0uMDExLjAzOCAwLS4wMTMuMDA3LS4wMjYuMDExLS4wMzhhMjAyLjg0IDIwMi44NCAwIDAgMC0zMi4yNDcgNzIuODA1Yy0uMTE1LjUyMS0uMjEyIDEuMDYxLS4zMjQgMS41ODYtLjQ1MiAyLjExNi0yLjA4IDEyLjctMi4zNjUgMTUtLjAyMi4xNzctLjAzMi4zNDctLjA1My41MjRhMjI5LjA3IDIyOS4wNyAwIDAgMC0zLjkgMzMuMTU3YzAgLjQxLS4wMjUuODE2LS4wMjUgMS4yMjcuMDA0IDEzMi43MSAxMDcuNiAyNDAuMyAyNDAuMzMgMjQwLjMgMTE4Ljg2IDAgMjE3LjU2LTg2LjI4OCAyMzYuODgtMTk5LjYzLjQwNy0zLjA3Ni43MzMtNi4xNjggMS4wOTItOS4yNzEgNC43NzctNDEuMjEtLjUzLTg0LjUyNS0xNS41ODctMTIwLjc1em0tMjc3IDE4OC4wOWMxLjEyNC41MzcgMi4xOCAxLjEyNCAzLjMzNCAxLjYzOS4wNDguMDMzLjExNC4wNy4xNjMuMWExMjYuMTkgMTI2LjE5IDAgMCAxLTMuNDk3LTEuNzM5em0yNTMuMTgzLTE3NS41Mi0uMDMyLS4yMzNjLjAxMi4wODUuMDI3LjE3NC4wNC4yNTl6IiB0cmFuc2Zvcm09InRyYW5zbGF0ZSgtLjc3NCkgc2NhbGUoLjA5Njc3KSIvPjxwYXRoIGZpbGw9InVybCgjbW96aWxsYWZpcmVmb3hicm93c2VyX3N2Z19fYikiIGQ9Ik00NzguNzEgMTY2LjM1Yy0xMC40NDUtMjUuMTI0LTMxLjYtNTIuMjQ4LTQ4LjIxMi02MC44MjEgMTMuNTIgMjYuNTA1IDIxLjM0NSA1My4wOTMgMjQuMzM1IDcyLjkzNiAwLS4wNTguMDExLjA0OC4wMzYuMjI2LjAxMi4wODUuMDI3LjE3NC4wNC4yNTkgMjIuNjc1IDYxLjQ3IDEwLjMyMiAxMjMuOTgtNy40NzkgMTYyLjE4LTI3LjUzOSA1OS4xLTk0LjIxNSAxMTkuNjctMTk4LjU4IDExNi43Mi0xMTIuNzYtMy4xOTMtMjEyLjA5LTg2Ljg1Ni0yMzAuNjMtMTk2LjQzLTMuMzc5LTE3LjI4IDAtMjYuMDU0IDEuNy00MC4wODQtMi4wNzEgMTAuODE2LTIuODYgMTMuOTQtMy45IDMzLjE1NyAwIC40MS0uMDI1LjgxNi0uMDI1IDEuMjI3LjAwMiAxMzIuNzEgMTA3LjYgMjQwLjI5IDI0MC4zMyAyNDAuMjkgMTE4Ljg2IDAgMjE3LjU2LTg2LjI4OCAyMzYuODgtMTk5LjYzLjQwNy0zLjA3Ni43MzMtNi4xNjggMS4wOTItOS4yNzEgNC43NzctNDEuMjEtLjUzLTg0LjUyNS0xNS41ODctMTIwLjc1eiIgdHJhbnNmb3JtPSJ0cmFuc2xhdGUoLS43NzQpIHNjYWxlKC4wOTY3NykiLz48cGF0aCBmaWxsPSJ1cmwoI21vemlsbGFmaXJlZm94YnJvd3Nlcl9zdmdfX2MpIiBkPSJNNDc4LjcxIDE2Ni4zNWMtMTAuNDQ1LTI1LjEyNC0zMS42LTUyLjI0OC00OC4yMTItNjAuODIxIDEzLjUyIDI2LjUwNSAyMS4zNDUgNTMuMDkzIDI0LjMzNSA3Mi45MzYgMC0uMDU4LjAxMS4wNDguMDM2LjIyNi4wMTIuMDg1LjAyNy4xNzQuMDQuMjU5IDIyLjY3NSA2MS40NyAxMC4zMjIgMTIzLjk4LTcuNDc5IDE2Mi4xOC0yNy41MzkgNTkuMS05NC4yMTUgMTE5LjY3LTE5OC41OCAxMTYuNzItMTEyLjc2LTMuMTkzLTIxMi4wOS04Ni44NTYtMjMwLjYzLTE5Ni40My0zLjM3OS0xNy4yOCAwLTI2LjA1NCAxLjctNDAuMDg0LTIuMDcxIDEwLjgxNi0yLjg2IDEzLjk0LTMuOSAzMy4xNTcgMCAuNDEtLjAyNS44MTYtLjAyNSAxLjIyNy4wMDIgMTMyLjcxIDEwNy42IDI0MC4yOSAyNDAuMzMgMjQwLjI5IDExOC44NiAwIDIxNy41Ni04Ni4yODggMjM2Ljg4LTE5OS42My40MDctMy4wNzYuNzMzLTYuMTY4IDEuMDkyLTkuMjcxIDQuNzc3LTQxLjIxLS41My04NC41MjUtMTUuNTg3LTEyMC43NXoiIHRyYW5zZm9ybT0idHJhbnNsYXRlKC0uNzc0KSBzY2FsZSguMDk2NzcpIi8+PHBhdGggZmlsbD0idXJsKCNtb3ppbGxhZmlyZWZveGJyb3dzZXJfc3ZnX19kKSIgZD0iTTM2MS45MiAxOTQuNmMuNTI0LjM2OCAxIC43MzQgMS40OTMgMS4xYTEzMC43MSAxMzAuNzEgMCAwIDAtMjIuMzEtMjkuMTEyQzI2Ni4zOTggOTEuODkyIDMyMS41MTQgNC42MjggMzMwLjgwOS4xOThjLjAyNy0uMDM2LjA4My0uMTE3LjEtLjEzNi02MC4zNyAzNS4zNTYtODAuODUgMTAwLjc2LTgyLjczMiAxMzMuNDggMi44LS4xOTQgNS41OTItLjQyOSA4LjQ0Mi0uNDI5IDQ1LjA1MSAwIDg0LjI4OSAyNC43NyAxMDUuMyA2MS40ODd6IiB0cmFuc2Zvcm09InRyYW5zbGF0ZSgtLjc3NCkgc2NhbGUoLjA5Njc3KSIvPjxwYXRoIGZpbGw9InVybCgjbW96aWxsYWZpcmVmb3hicm93c2VyX3N2Z19fZSkiIGQ9Ik0yNTYuNzcgMjA5LjUxYy0uMzkzIDUuOTc4LTIxLjUxNCAyNi41OTMtMjguOSAyNi41OTMtNjguMzM5IDAtNzkuNDMyIDQxLjMzNS03OS40MzIgNDEuMzM1IDMuMDI3IDM0LjgxIDI3LjI2MSA2My40NzUgNTYuNjExIDc4LjY0MyAxLjMzOS42OTIgMi42OTQgMS4zMTcgNC4wNSAxLjkzNWExMzIuNzcgMTMyLjc3IDAgMCAwIDcuMDU5IDIuODg2IDEwNi43NCAxMDYuNzQgMCAwIDAgMzEuMjcxIDYuMDMxYzExOS43OCA1LjYxOCAxNDIuOTktMTQzLjE5IDU2LjU0NS0xODYuNDEgMjIuMTM3LTMuODUgNDUuMTE1IDUuMDUzIDU3Ljk0NyAxNC4wNjctMjEuMDEyLTM2LjcxNC02MC4yNS02MS40ODQtMTA1LjMtNjEuNDg0LTIuODUgMC01LjY0MS4yMzUtOC40NDIuNDI5YTEyMC4yNSAxMjAuMjUgMCAwIDAtNjYuMTQyIDI1LjQ4OGMzLjY2NCAzLjEgNy44IDcuMjQ0IDE2LjUxNCAxNS44MjggMTYuMzAyIDE2LjA2NyA1OC4xMyAzMi43MDUgNTguMjE5IDM0LjY1N3oiIHRyYW5zZm9ybT0idHJhbnNsYXRlKC0uNzc0KSBzY2FsZSguMDk2NzcpIi8+PHBhdGggZmlsbD0idXJsKCNtb3ppbGxhZmlyZWZveGJyb3dzZXJfc3ZnX19mKSIgZD0iTTI1Ni43NyAyMDkuNTFjLS4zOTMgNS45NzgtMjEuNTE0IDI2LjU5My0yOC45IDI2LjU5My02OC4zMzkgMC03OS40MzIgNDEuMzM1LTc5LjQzMiA0MS4zMzUgMy4wMjcgMzQuODEgMjcuMjYxIDYzLjQ3NSA1Ni42MTEgNzguNjQzIDEuMzM5LjY5MiAyLjY5NCAxLjMxNyA0LjA1IDEuOTM1YTEzMi43NyAxMzIuNzcgMCAwIDAgNy4wNTkgMi44ODYgMTA2Ljc0IDEwNi43NCAwIDAgMCAzMS4yNzEgNi4wMzFjMTE5Ljc4IDUuNjE4IDE0Mi45OS0xNDMuMTkgNTYuNTQ1LTE4Ni40MSAyMi4xMzctMy44NSA0NS4xMTUgNS4wNTMgNTcuOTQ3IDE0LjA2Ny0yMS4wMTItMzYuNzE0LTYwLjI1LTYxLjQ4NC0xMDUuMy02MS40ODQtMi44NSAwLTUuNjQxLjIzNS04LjQ0Mi40MjlhMTIwLjI1IDEyMC4yNSAwIDAgMC02Ni4xNDIgMjUuNDg4YzMuNjY0IDMuMSA3LjggNy4yNDQgMTYuNTE0IDE1LjgyOCAxNi4zMDIgMTYuMDY3IDU4LjEzIDMyLjcwNSA1OC4yMTkgMzQuNjU3eiIgdHJhbnNmb3JtPSJ0cmFuc2xhdGUoLS43NzQpIHNjYWxlKC4wOTY3NykiLz48cGF0aCBmaWxsPSJ1cmwoI21vemlsbGFmaXJlZm94YnJvd3Nlcl9zdmdfX2cpIiBkPSJNMTcwLjgzIDE1MS4wNGEyNDQuMDQgMjQ0LjA0IDAgMCAxIDQuOTgxIDMuMyAxMTEuMzQgMTExLjM0IDAgMCAxLS42NzQtNTguNzMyYy0yNC42ODggMTEuMjQxLTQzLjg5IDI5LjAxLTU3Ljg1IDQ0LjcgMS4xNTUtLjAzMyAzNi4wMTQtLjY2IDUzLjU0MyAxMC43MzJ6IiB0cmFuc2Zvcm09InRyYW5zbGF0ZSgtLjc3NCkgc2NhbGUoLjA5Njc3KSIvPjxwYXRoIGZpbGw9InVybCgjbW96aWxsYWZpcmVmb3hicm93c2VyX3N2Z19faCkiIGQ9Ik0xOC4yMjMgMjYxLjQxYzE4LjU0MyAxMDkuNTggMTE3Ljg4IDE5My4yNCAyMzAuNjMgMTk2LjQzIDEwNC4zNiAyLjk1NCAxNzEuMDQtNTcuNjIgMTk4LjU4LTExNi43MiAxNy44LTM4LjIgMzAuMTU0LTEwMC43IDcuNDc5LTE2Mi4xOGwtLjAwOC0uMDI2LS4wMzItLjIzM2MtLjAyNS0uMTc4LS4wNC0uMjg0LS4wMzYtLjIyNiAwIC4wMzkuMDE1LjEzNi4wNDcuNCA4LjUyNCA1NS42NjEtMTkuNzkgMTA5LjU4LTY0LjA1MSAxNDYuMDRsLS4xMzMuMzEzYy04Ni4yNDUgNzAuMjIzLTE2OC43NyA0Mi4zNjgtMTg1LjQ4IDMwLjk2NmExNDQuMTEgMTQ0LjExIDAgMCAxLTMuNS0xLjc0M2MtNTAuMjgyLTI0LjAyOS03MS4wNTQtNjkuODM4LTY2LjYtMTA5LjEyLTQyLjQ1NyAwLTU2LjkzNC0zNS44MDktNTYuOTM0LTM1LjgwOXMzOC4xMTktMjcuMTc5IDg4LjM1OC0zLjU0MWM0Ni41MyAyMS44OTMgOTAuMjI4IDMuNTQzIDkwLjIzMyAzLjU0MS0uMDg5LTEuOTUyLTQxLjkxNy0xOC41OS01OC4yMjMtMzQuNjU2LTguNzEzLTguNTg0LTEyLjg1LTEyLjcyMy0xNi41MTQtMTUuODI4YTcxLjM1NSA3MS4zNTUgMCAwIDAtNi4yMjUtNC43IDI4Mi45MyAyODIuOTMgMCAwIDAtNC45ODEtMy4zYy0xNy41MjgtMTEuMzkyLTUyLjM4OC0xMC43NjUtNTMuNTQzLTEwLjczNWgtLjExMWMtOS41MjctMTIuMDY3LTguODU1LTUxLjg3My04LjMxMi02MC4xODQtLjExNC0uNTE1LTcuMTA3IDMuNjMtOC4wMjMgNC4yNTVhMTc1LjA3IDE3NS4wNyAwIDAgMC0yMy40ODYgMjAuMTIgMjEwLjQ4IDIxMC40OCAwIDAgMC0yMi40NDIgMjYuOTE5YzAgLjAxMi0uMDA3LjAyNi0uMDExLjAzOCAwLS4wMTMuMDA3LS4wMjYuMDExLS4wMzhhMjAyLjg0IDIwMi44NCAwIDAgMC0zMi4yNDcgNzIuODA1Yy0uMTE1LjUyMS04LjY1IDM3Ljg0Mi00LjQ0IDU3LjE5OXoiIHRyYW5zZm9ybT0idHJhbnNsYXRlKC0uNzc0KSBzY2FsZSguMDk2NzcpIi8+PHBhdGggZmlsbD0idXJsKCNtb3ppbGxhZmlyZWZveGJyb3dzZXJfc3ZnX19pKSIgZD0iTTM0MS4xIDE2Ni41OWExMzAuNzEgMTMwLjcxIDAgMCAxIDIyLjMxIDI5LjExMmMxLjMyMy45OTQgMi41NTkgMS45ODUgMy42MDggMi45NTIgNTQuNDgyIDUwLjIgMjUuOTM2IDEyMS4yIDIzLjgwNyAxMjYuMjYgNDQuMjYxLTM2LjQ2IDcyLjU3NS05MC4zODMgNjQuMDUxLTE0Ni4wNC0yNy4xNzUtNjcuNzMyLTczLjI1NC05NS4wNDQtMTEwLjg4LTE1NC41MS0xLjktMy4wMDctMy44MDUtNi4wMjItNS42NjEtOS4yYTczLjcxNiA3My43MTYgMCAwIDEtMi42NDYtNC45NzIgNDMuNyA0My43IDAgMCAxLTMuNTkzLTkuNTA2LjYyNi42MjYgMCAwIDAtLjU0Ni0uNjQ0LjgxOC44MTggMCAwIDAtLjQ1MSAwYy0uMDM0LjAxMi0uMDg0LjA1MS0uMTIuMDY1LS4wNTMuMDIxLS4xMi4wNjktLjE3Ni4xLTkuMjkxIDQuNDI4LTY0LjQwNyA5MS42OTQgMTAuMjk4IDE2Ni4zOXoiIHRyYW5zZm9ybT0idHJhbnNsYXRlKC0uNzc0KSBzY2FsZSguMDk2NzcpIi8+PHBhdGggZmlsbD0idXJsKCNtb3ppbGxhZmlyZWZveGJyb3dzZXJfc3ZnX19qKSIgZD0iTTM2Ny4wMiAxOTguNjVjLTEuMDQ5LS45NjctMi4yODUtMS45NTgtMy42MDgtMi45NTItLjQ4OS0uMzY4LS45NjktLjczNC0xLjQ5My0xLjEtMTIuODMyLTkuMDE0LTM1LjgxLTE3LjkxNy01Ny45NDctMTQuMDY3IDg2LjQ0MSA0My4yMTQgNjMuMjM1IDE5Mi4wMy01Ni41NDUgMTg2LjQxYTEwNi43NCAxMDYuNzQgMCAwIDEtMzEuMjcxLTYuMDMxIDEzNC41MSAxMzQuNTEgMCAwIDEtNy4wNTktMi44ODZjLTEuMzU2LS42MTgtMi43MTEtMS4yNDMtNC4wNS0xLjkzNS4wNDguMDMzLjExNC4wNy4xNjMuMSAxNi43MSAxMS40IDk5LjIzOSAzOS4yNTcgMTg1LjQ4LTMwLjk2NmwuMTMzLS4zMTNjMi4xMjktNS4wNTQgMzAuNjc1LTc2LjA1Ny0yMy44MDctMTI2LjI2eiIgdHJhbnNmb3JtPSJ0cmFuc2xhdGUoLS43NzQpIHNjYWxlKC4wOTY3NykiLz48cGF0aCBmaWxsPSJ1cmwoI21vemlsbGFmaXJlZm94YnJvd3Nlcl9zdmdfX2spIiBkPSJNMTQ4LjQ0IDI3Ny40NHMxMS4wOTMtNDEuMzM1IDc5LjQzMi00MS4zMzVjNy4zODggMCAyOC41MDktMjAuNjE1IDI4LjktMjYuNTkzcy00My43IDE4LjM1Mi05MC4yMzMtMy41NDFjLTUwLjIzOS0yMy42MzgtODguMzU4IDMuNTQxLTg4LjM1OCAzLjU0MXMxNC40NzcgMzUuODA5IDU2LjkzNCAzNS44MDljLTQuNDUzIDM5LjI4NiAxNi4zMTkgODUuMSA2Ni42IDEwOS4xMiAxLjEyNC41MzcgMi4xOCAxLjEyNCAzLjMzNCAxLjYzOS0yOS4zNDgtMTUuMTY5LTUzLjU4Mi00My44MzQtNTYuNjA5LTc4LjY0NHoiIHRyYW5zZm9ybT0idHJhbnNsYXRlKC0uNzc0KSBzY2FsZSguMDk2NzcpIi8+PHBhdGggZmlsbD0idXJsKCNtb3ppbGxhZmlyZWZveGJyb3dzZXJfc3ZnX19sKSIgZD0iTTQ3OC43MSAxNjYuMzVjLTEwLjQ0NS0yNS4xMjQtMzEuNi01Mi4yNDgtNDguMjEyLTYwLjgyMSAxMy41MiAyNi41MDUgMjEuMzQ1IDUzLjA5MyAyNC4zMzUgNzIuOTM2IDAgLjAzOS4wMTUuMTM2LjA0Ny40QzQyNy43MDUgMTExLjEzMiAzODEuNjI2IDgzLjgyIDM0NCAyNC4zNTVjLTEuOS0zLjAwNy0zLjgwNS02LjAyMi01LjY2MS05LjJhNzMuNzE2IDczLjcxNiAwIDAgMS0yLjY0Ni00Ljk3MkE0My43IDQzLjcgMCAwIDEgMzMyLjEuNjc3YS42MjYuNjI2IDAgMCAwLS41NDYtLjY0NC44MTguODE4IDAgMCAwLS40NTEgMGMtLjAzNC4wMTItLjA4NC4wNTEtLjEyLjA2NS0uMDUzLjAyMS0uMTIuMDY5LS4xNzYuMS4wMjctLjAzNi4wODMtLjExNy4xLS4xMzYtNjAuMzcgMzUuMzU2LTgwLjg1IDEwMC43Ni04Mi43MzIgMTMzLjQ4IDIuOC0uMTk0IDUuNTkyLS40MjkgOC40NDItLjQyOSA0NS4wNTMgMCA4NC4yOTEgMjQuNzcgMTA1LjMgNjEuNDg0LTEyLjgzMi05LjAxNC0zNS44MS0xNy45MTctNTcuOTQ3LTE0LjA2NyA4Ni40NDEgNDMuMjE0IDYzLjIzNSAxOTIuMDMtNTYuNTQ1IDE4Ni40MWExMDYuNzQgMTA2Ljc0IDAgMCAxLTMxLjI3MS02LjAzMSAxMzQuNTEgMTM0LjUxIDAgMCAxLTcuMDU5LTIuODg2Yy0xLjM1Ni0uNjE4LTIuNzExLTEuMjQzLTQuMDUtMS45MzUuMDQ4LjAzMy4xMTQuMDcuMTYzLjFhMTQ0LjExIDE0NC4xMSAwIDAgMS0zLjUtMS43NDNjMS4xMjQuNTM3IDIuMTggMS4xMjQgMy4zMzQgMS42MzktMjkuMzUtMTUuMTY4LTUzLjU4NC00My44MzMtNTYuNjExLTc4LjY0MyAwIDAgMTEuMDkzLTQxLjMzNSA3OS40MzItNDEuMzM1IDcuMzg4IDAgMjguNTA5LTIwLjYxNSAyOC45LTI2LjU5My0uMDg5LTEuOTUyLTQxLjkxNy0xOC41OS01OC4yMjMtMzQuNjU2LTguNzEzLTguNTg0LTEyLjg1LTEyLjcyMy0xNi41MTQtMTUuODI4YTcxLjM1NSA3MS4zNTUgMCAwIDAtNi4yMjUtNC43IDExMS4zNCAxMTEuMzQgMCAwIDEtLjY3NC01OC43MzJjLTI0LjY4OCAxMS4yNDEtNDMuODkgMjkuMDEtNTcuODUgNDQuN2gtLjExMWMtOS41MjctMTIuMDY3LTguODU1LTUxLjg3My04LjMxMi02MC4xODQtLjExNC0uNTE1LTcuMTA3IDMuNjMtOC4wMjMgNC4yNTVhMTc1LjA3IDE3NS4wNyAwIDAgMC0yMy40ODYgMjAuMTIgMjEwLjQ4IDIxMC40OCAwIDAgMC0yMi40MzUgMjYuOTE2YzAgLjAxMi0uMDA3LjAyNi0uMDExLjAzOCAwLS4wMTMuMDA3LS4wMjYuMDExLS4wMzhhMjAyLjg0IDIwMi44NCAwIDAgMC0zMi4yNDcgNzIuODA1Yy0uMTE1LjUyMS0uMjEyIDEuMDYxLS4zMjQgMS41ODYtLjQ1MiAyLjExNi0yLjQ4NiAxMi44NTMtMi43NyAxNS4xNTYtLjAyMi4xNzcuMDIxLS4xNzYgMCAwYTI3OS41NiAyNzkuNTYgMCAwIDAtMy41NDQgMzMuNTNjMCAuNDEtLjAyNS44MTYtLjAyNSAxLjIyNyAwIDEzMi43MSAxMDcuNiAyNDAuMjkgMjQwLjMyIDI0MC4yOSAxMTguODYgMCAyMTcuNTYtODYuMjg4IDIzNi44OC0xOTkuNjMuNDA3LTMuMDc2LjczMy02LjE2OCAxLjA5Mi05LjI3MSA0Ljc3Ny00MS4yMS0uNTMtODQuNTI1LTE1LjU4Ny0xMjAuNzV6bS0yMy44NDEgMTIuMzQxYy4wMTIuMDg1LjAyNy4xNzQuMDQuMjU5bC0uMDA4LS4wMjZ6IiB0cmFuc2Zvcm09InRyYW5zbGF0ZSgtLjc3NCkgc2NhbGUoLjA5Njc3KSIvPjwvc3ZnPg==" parent="1" vertex="1">
          <mxGeometry x="40" y="236" width="48" height="48" as="geometry" />
        </mxCell>
        <mxCell id="Rfjf2EXHm2gB7qsc8450-31" value="Browser cache" style="shape=cylinder3;whiteSpace=wrap;html=1;boundedLbl=1;backgroundOutline=1;size=15;labelPosition=center;verticalLabelPosition=bottom;align=center;verticalAlign=top;aspect=fixed;" parent="1" vertex="1">
          <mxGeometry x="260" y="236" width="36" height="48" as="geometry" />
        </mxCell>
        <mxCell id="Rfjf2EXHm2gB7qsc8450-33" value="" style="endArrow=classic;html=1;rounded=0;" parent="1" source="Rfjf2EXHm2gB7qsc8450-2" target="Rfjf2EXHm2gB7qsc8450-31" edge="1">
          <mxGeometry width="50" height="50" relative="1" as="geometry">
            <mxPoint x="190" y="340" as="sourcePoint" />
            <mxPoint x="240" y="290" as="targetPoint" />
          </mxGeometry>
        </mxCell>
        <mxCell id="Rfjf2EXHm2gB7qsc8450-34" value="Checks cache" style="edgeLabel;html=1;align=center;verticalAlign=middle;resizable=0;points=[];" parent="Rfjf2EXHm2gB7qsc8450-33" vertex="1" connectable="0">
          <mxGeometry x="-0.228" y="-3" relative="1" as="geometry">
            <mxPoint x="16" y="-3" as="offset" />
          </mxGeometry>
        </mxCell>
        <mxCell id="Rfjf2EXHm2gB7qsc8450-8" value="" style="rounded=1;whiteSpace=wrap;html=1;" parent="1" vertex="1">
          <mxGeometry x="569.45" y="110" width="160" height="280" as="geometry" />
        </mxCell>
        <mxCell id="Rfjf2EXHm2gB7qsc8450-36" value="Browser" style="text;html=1;strokeColor=none;fillColor=none;align=center;verticalAlign=middle;whiteSpace=wrap;rounded=0;" parent="1" vertex="1">
          <mxGeometry x="20" y="190" width="320" height="30" as="geometry" />
        </mxCell>
        <mxCell id="Rfjf2EXHm2gB7qsc8450-9" value="VPS" style="text;html=1;strokeColor=none;fillColor=none;align=center;verticalAlign=middle;whiteSpace=wrap;rounded=0;" parent="1" vertex="1">
          <mxGeometry x="570" y="110" width="160" height="30" as="geometry" />
        </mxCell>
        <mxCell id="Rfjf2EXHm2gB7qsc8450-28" value="" style="endArrow=none;startArrow=classic;html=1;rounded=0;endFill=0;" parent="1" source="nXug15LwH23_o3I5dL1v-23" target="Rfjf2EXHm2gB7qsc8450-31" edge="1">
          <mxGeometry width="50" height="50" relative="1" as="geometry">
            <mxPoint x="626" y="260" as="sourcePoint" />
            <mxPoint x="230" y="278" as="targetPoint" />
          </mxGeometry>
        </mxCell>
        <mxCell id="Rfjf2EXHm2gB7qsc8450-30" value="If not in browser cache" style="edgeLabel;html=1;align=center;verticalAlign=middle;resizable=0;points=[];" parent="Rfjf2EXHm2gB7qsc8450-28" vertex="1" connectable="0">
          <mxGeometry x="0.5212" y="2" relative="1" as="geometry">
            <mxPoint x="60" y="-2" as="offset" />
          </mxGeometry>
        </mxCell>
        <mxCell id="nXug15LwH23_o3I5dL1v-22" value="" style="shape=image;verticalLabelPosition=bottom;verticalAlign=top;imageAspect=0;aspect=fixed;image=data:image/svg+xml,PHN2ZyB4bWxucz0iaHR0cDovL3d3dy53My5vcmcvMjAwMC9zdmciIHZpZXdCb3g9IjAgMCA0OCA0OCI+PHBhdGggZD0iTTcuNjU2IDM4LjcyNUgxLjY5OXYtNS45NTdoNS45NTd6bTAgMGg3LjEyNnY3LjEyNkg3LjY1NnptNy4xMjYgMHYtOS4yNDhoOS4yNDh2OS4yNDh6TTI0LjAwMiA0OHYtOS4zMDJjOS44NDcgMCAxNy40OS05Ljc2NSAxMy43MDktMjAuMTI4YTEzLjkwMiAxMy45MDIgMCAwIDAtOC4yOTYtOC4yOTZDMTkuMDUyIDYuNTIxIDkuMjg3IDE0LjEzNiA5LjI4NyAyMy45ODJILjAxMmMwLTE1LjY5NCAxNS4xNzctMjcuOTM0IDMxLjYzMy0yMi43OTMgNy4xOCAyLjI1NyAxMi45MiA3Ljk3IDE1LjE1IDE1LjE1IDUuMTQgMTYuNDgzLTcuMDcyIDMxLjY2LTIyLjc5MyAzMS42NnoiIHN0eWxlPSJmaWxsOiMwMDgwZmYiLz48L3N2Zz4=" vertex="1" parent="1">
          <mxGeometry x="540" y="30" width="48" height="48" as="geometry" />
        </mxCell>
        <mxCell id="nXug15LwH23_o3I5dL1v-23" value="" style="shape=image;verticalLabelPosition=bottom;verticalAlign=top;imageAspect=0;aspect=fixed;image=data:image/svg+xml,PHN2ZyB4bWxucz0iaHR0cDovL3d3dy53My5vcmcvMjAwMC9zdmciIHZpZXdCb3g9IjAgMCA0OCA0OCI+PGRlZnM+PHN0eWxlPi5uZ2lueF9zdmdfX2Nscy0xe2ZpbGw6Izk5OX08L3N0eWxlPjwvZGVmcz48ZyBzdHJva2Utd2lkdGg9IjEuMjQ1Ij48cGF0aCBmaWxsPSIjMDA5NjM5IiBkPSJNMy4yMTUgMzZhMi40MjUgMi40MjUgMCAwIDAgLjkxLjkwNWwxOC42MzYgMTAuNzU5YTIuNDQ1IDIuNDQ1IDAgMCAwIDIuNDc3IDBsMTguNjM2LTEwLjc2YTIuNDQ0IDIuNDQ0IDAgMCAwIDEuMjM4LTIuMTQ1VjEzLjI0MmEyLjQ0NSAyLjQ0NSAwIDAgMC0xLjI0LTIuMTQ0TDI1LjIzNy4zMzhhMi40NDIgMi40NDIgMCAwIDAtMi40NzUgMEw0LjEyNyAxMS4wOTZhMi40NDMgMi40NDMgMCAwIDAtMS4yNCAyLjE0NHYyMS41MkEyLjQzIDIuNDMgMCAwIDAgMy4yMTMgMzYiLz48cGF0aCBmaWxsPSIjZmZmIiBkPSJNMTguMDMzIDMyLjE5MWEyLjM5NyAyLjM5NyAwIDAgMS00Ljc5MyAwdi4wMDFsLjAwMi0xNi40NTFhMi40OTggMi40OTggMCAwIDEgMi43MjItMi4zMjkgNC4yNjIgNC4yNjIgMCAwIDEgMy4yNjcgMS40NjFsLjcyNC44NjcgMTAuMDEyIDExLjk4MlYxNS44MDhhMi4zOTcgMi4zOTcgMCAxIDEgNC43OTIgMGwtLjAwMyAxNi40NWEyLjQ5OSAyLjQ5OSAwIDAgMS0yLjcyIDIuMzMgNC4yNiA0LjI2IDAgMCAxLTMuMjY4LTEuNDYyTDE4LjAzMiAyMC4yNzlWMzIuMTl6Ii8+PC9nPjwvc3ZnPg==" vertex="1" parent="1">
          <mxGeometry x="625.45" y="236" width="48" height="48" as="geometry" />
        </mxCell>
      </root>
    </mxGraphModel>
  </diagram>
  <diagram id="z1QMzpog9QEEkoXKkIDK" name="Page-2">
    <mxGraphModel dx="2963" dy="1594" grid="1" gridSize="10" guides="1" tooltips="1" connect="1" arrows="1" fold="1" page="1" pageScale="1" pageWidth="1100" pageHeight="850" math="0" shadow="0">
      <root>
        <mxCell id="0" />
        <mxCell id="1" parent="0" />
        <mxCell id="isHLi1uxbtspG-2-zyCt-1" value="" style="rounded=1;whiteSpace=wrap;html=1;" vertex="1" parent="1">
          <mxGeometry x="20" y="190" width="320" height="160" as="geometry" />
        </mxCell>
        <mxCell id="isHLi1uxbtspG-2-zyCt-2" value="" style="rounded=0;whiteSpace=wrap;html=1;" vertex="1" parent="1">
          <mxGeometry x="530" y="20" width="480" height="410" as="geometry" />
        </mxCell>
        <mxCell id="isHLi1uxbtspG-2-zyCt-3" value="" style="shape=image;verticalLabelPosition=bottom;verticalAlign=top;imageAspect=0;aspect=fixed;image=data:image/svg+xml,PHN2ZyB4bWxucz0iaHR0cDovL3d3dy53My5vcmcvMjAwMC9zdmciIHZpZXdCb3g9IjAgMCA0OCA0OCI+PHN0eWxlPi5hbWF6b253ZWJzZXJ2aWNlc19zdmdfX3N0MXtmaWxsLXJ1bGU6ZXZlbm9kZDtjbGlwLXJ1bGU6ZXZlbm9kZDtmaWxsOiNmOTB9PC9zdHlsZT48cGF0aCBmaWxsPSIjMjUyZjNlIiBkPSJNMTMuNTI3IDIwLjA3MmMwIC41OS4wNjQgMS4wNy4xNzYgMS40Mi4xMjcuMzUyLjI4Ny43MzUuNTEgMS4xNS4wOC4xMjguMTEyLjI1Ni4xMTIuMzY3IDAgLjE2LS4wOTYuMzItLjMwMy40OGwtMS4wMDYuNjdhLjc2NS43NjUgMCAwIDEtLjQxNS4xNDRjLS4xNiAwLS4zMi0uMDgtLjQ3OS0uMjI0YTQuOTM5IDQuOTM5IDAgMCAxLS41NzUtLjc1Yy0uMTYtLjI3Mi0uMzE5LS41NzUtLjQ5NS0uOTQyLTEuMjQ1IDEuNDY5LTIuODEgMi4yMDMtNC42OTMgMi4yMDMtMS4zNCAwLTIuNDEtLjM4My0zLjE5My0xLjE1cy0xLjE4MS0xLjc4Ny0xLjE4MS0zLjA2NWMwLTEuMzU3LjQ3OS0yLjQ1OCAxLjQ1My0zLjI4OHMyLjI2Ny0xLjI0NSAzLjkxLTEuMjQ1Yy41NDQgMCAxLjEwMi4wNDggMS42OTMuMTI3czEuMTk3LjIwOCAxLjgzNi4zNTJ2LTEuMTY2YzAtMS4yMTMtLjI1Ni0yLjA2LS43NS0yLjU1NC0uNTExLS40OTUtMS4zNzMtLjczNC0yLjYwMy0uNzM0LS41NTggMC0xLjEzMy4wNjMtMS43MjQuMjA3cy0xLjE2NS4zMi0xLjcyNC41NDNjLS4yNTUuMTEyLS40NDcuMTc2LS41NTkuMjA3cy0uMTkxLjA0OC0uMjU1LjA0OGMtLjIyMyAwLS4zMzUtLjE2LS4zMzUtLjQ5NXYtLjc4MmMwLS4yNTUuMDMyLS40NDcuMTEyLS41NTlzLjIyMy0uMjIzLjQ0Ny0uMzM1Yy41NTgtLjI4NyAxLjIyOS0uNTI3IDIuMDExLS43MThhOS42NzkgOS42NzkgMCAwIDEgMi40OS0uMzAzYzEuOSAwIDMuMjg5LjQzIDQuMTgzIDEuMjkzLjg3OC44NjIgMS4zMjUgMi4xNyAxLjMyNSAzLjkyN3Y1LjE3MnpNNy4wNDYgMjIuNWMuNTI2IDAgMS4wNy0uMDk2IDEuNjQ0LS4yODhzMS4wODUtLjU0MyAxLjUxNi0xLjAyMWMuMjU2LS4zMDQuNDQ3LS42MzkuNTQzLTEuMDIycy4xNi0uODQ2LjE2LTEuMzg5di0uNjdjLS40NjMtLjExMi0uOTU4LS4yMDgtMS40NjktLjI3MnMtMS4wMDYtLjA5Ni0xLjUtLjA5NmMtMS4wNyAwLTEuODUyLjIwOC0yLjM4LjYzOXMtLjc4MSAxLjAzOC0uNzgxIDEuODM2YzAgLjc1LjE5MSAxLjMwOS41OSAxLjY5Mi4zODMuNC45NDIuNTkgMS42NzcuNTl6bTEyLjgxOSAxLjcyNGMtLjI4OCAwLS40OC0uMDQ4LS42MDctLjE2LS4xMjgtLjA5Ni0uMjQtLjMyLS4zMzUtLjYyMkwxNS4xNyAxMS4xYy0uMDk2LS4zMi0uMTQzLS41MjctLjE0My0uNjQgMC0uMjU1LjEyNy0uMzk4LjM4My0uMzk4aDEuNTY0Yy4zMDMgMCAuNTExLjA0OC42MjMuMTYuMTI3LjA5NS4yMjMuMzE5LjMxOS42MjJsMi42ODIgMTAuNTY4IDIuNDktMTAuNTY4Yy4wOC0uMzIuMTc2LS41MjcuMzA0LS42MjNzLjM1LS4xNi42MzgtLjE2aDEuMjc3Yy4zMDQgMCAuNTExLjA0OS42MzkuMTYuMTI4LjA5Ni4yNC4zMi4zMDMuNjIzbDIuNTIzIDEwLjY5NiAyLjc2MS0xMC42OTZjLjA5Ni0uMzIuMjA4LS41MjcuMzItLjYyMy4xMjctLjA5NS4zMzUtLjE2LjYyMi0uMTZoMS40ODVjLjI1NSAwIC4zOTkuMTI4LjM5OS40IDAgLjA4LS4wMTYuMTYtLjAzMi4yNTVzLS4wNDguMjI0LS4xMTIuNGwtMy44NDcgMTIuMzRjLS4wOTYuMzE5LS4yMDguNTI2LS4zMzUuNjIycy0uMzM2LjE2LS42MDcuMTZoLTEuMzczYy0uMzAzIDAtLjUxLS4wNDgtLjYzOC0uMTZzLS4yNC0uMzItLjMwNC0uNjM4bC0yLjQ3NC0xMC4yOTctMi40NTkgMTAuMjhjLS4wOC4zMi0uMTc1LjUyNy0uMzAzLjY0cy0uMzUxLjE1OS0uNjM4LjE1OXptMjAuNTEzLjQzYy0uODMgMC0xLjY2LS4wOTUtMi40NTgtLjI4N3MtMS40Mi0uMzk5LTEuODM2LS42MzhjLS4yNTUtLjE0NC0uNDMxLS4zMDMtLjQ5NS0uNDQ3cy0uMDk2LS4zMDMtLjA5Ni0uNDQ3di0uODE0YzAtLjMzNi4xMjgtLjQ5NS4zNjgtLjQ5NS4wOTUgMCAuMTkxLjAxNi4yODcuMDQ4cy4yNC4wOTUuMzk5LjE2Yy41NDMuMjM5IDEuMTMzLjQzIDEuNzU2LjU1OGE5LjU4NyA5LjU4NyAwIDAgMCAxLjkuMTkyYzEuMDA1IDAgMS43ODgtLjE3NiAyLjMzLS41MjdzLjgzLS44NjIuODMtMS41MTdjMC0uNDQ3LS4xNDMtLjgxNC0uNDMtMS4xMTdzLS44My0uNTc1LTEuNjEzLS44M2wtMi4zMTUtLjcxOWMtMS4xNjUtLjM2Ny0yLjAyNy0uOTEtMi41NTQtMS42MjgtLjUyNy0uNzAyLS43OTgtMS40ODUtLjc5OC0yLjMxNSAwLS42Ny4xNDQtMS4yNjEuNDMxLTEuNzcycy42Ny0uOTU4IDEuMTUtMS4zMDljLjQ3OC0uMzY3IDEuMDIxLS42MzggMS42Ni0uODNzMS4zMDktLjI3MSAyLjAxMS0uMjcxYy4zNTEgMCAuNzE5LjAxNiAxLjA3LjA2My4zNjcuMDQ4LjcwMi4xMTIgMS4wMzcuMTc2LjMyLjA4LjYyMy4xNi45MS4yNTVzLjUxMS4xOTIuNjcuMjg4Yy4yMjQuMTI4LjM4NC4yNTUuNDguMzk5LjA5Ni4xMjguMTQzLjMwMy4xNDMuNTI3di43NWMwIC4zMzUtLjEyNy41MS0uMzY3LjUxLS4xMjcgMC0uMzM1LS4wNjMtLjYwNi0uMTktLjkxLS40MTYtMS45MzItLjYyMy0zLjA2NS0uNjIzLS45MSAwLTEuNjI5LjE0My0yLjEyNC40NDdzLS43NS43NjYtLjc1IDEuNDJjMCAuNDQ4LjE2LjgzLjQ3OSAxLjEzNHMuOTEuNjA3IDEuNzU2Ljg3OGwyLjI2Ny43MThjMS4xNS4zNjggMS45OC44NzggMi40NzQgMS41MzNzLjczNSAxLjQwNS43MzUgMi4yMzVjMCAuNjg2LS4xNDQgMS4zMDktLjQxNSAxLjg1MmE0LjI5MyA0LjI5MyAwIDAgMS0xLjE2NiAxLjQwNWMtLjQ5NS4zOTktMS4wODUuNjg2LTEuNzcyLjg5NGE3LjU5MSA3LjU5MSAwIDAgMS0yLjI4My4zMzV6Ii8+PHBhdGggZD0iTTQzLjM5NiAzMi40MTJjLTUuMjUzIDMuODgtMTIuODgzIDUuOTM5LTE5LjQ0NSA1LjkzOS05LjE5NSAwLTE3LjQ4LTMuNC0yMy43MzgtOS4wNTItLjQ5NS0uNDQ3LS4wNDgtMS4wNTMuNTQzLS43MDIgNi43NjggMy45MjcgMTUuMTE4IDYuMzA2IDIzLjc1NCA2LjMwNiA1LjgyNyAwIDEyLjIyOS0xLjIxNCAxOC4xMi0zLjcwNC44NzctLjQgMS42MjguNTc1Ljc2NiAxLjIxM3oiIGNsYXNzPSJhbWF6b253ZWJzZXJ2aWNlc19zdmdfX3N0MSIvPjxwYXRoIGQ9Ik00NS41ODMgMjkuOTIyYy0uNjctLjg2Mi00LjQzOC0uNDE1LTYuMTQ3LS4yMDgtLjUxLjA2NC0uNTktLjM4My0uMTI3LS43MTggMy4wMDEtMi4xMDcgNy45MzQtMS41IDguNTA5LS43OTguNTc0LjcxOC0uMTYgNS42NTEtMi45NyA4LjAxNC0uNDMuMzY3LS44NDYuMTc1LS42NTQtLjMwNC42MzgtMS41OCAyLjA2LTUuMTQgMS4zODktNS45ODZ6IiBjbGFzcz0iYW1hem9ud2Vic2VydmljZXNfc3ZnX19zdDEiLz48L3N2Zz4=" vertex="1" parent="1">
          <mxGeometry x="540" y="30" width="48" height="48" as="geometry" />
        </mxCell>
        <mxCell id="isHLi1uxbtspG-2-zyCt-4" value="S3 (origin)" style="shape=image;verticalLabelPosition=bottom;labelBackgroundColor=default;verticalAlign=top;aspect=fixed;imageAspect=0;image=data:image/svg+xml,PHN2ZyB4bWxuczp4bGluaz0iaHR0cDovL3d3dy53My5vcmcvMTk5OS94bGluayIgeG1sbnM9Imh0dHA6Ly93d3cudzMub3JnLzIwMDAvc3ZnIiB2ZXJzaW9uPSIxLjEiIHZpZXdCb3g9IjAgMCA4MCA4MCIgaGVpZ2h0PSI4MHB4IiB3aWR0aD0iODBweCI+JiN4YTsgICAgPHRpdGxlPkljb24tQXJjaGl0ZWN0dXJlLzY0L0FyY2hfQW1hem9uLVNpbXBsZS1TdG9yYWdlLVNlcnZpY2VfNjQ8L3RpdGxlPiYjeGE7ICAgIDxkZWZzPiYjeGE7ICAgICAgICA8bGluZWFyR3JhZGllbnQgaWQ9ImxpbmVhckdyYWRpZW50LTEiIHkyPSIwJSIgeDI9IjEwMCUiIHkxPSIxMDAlIiB4MT0iMCUiPiYjeGE7ICAgICAgICAgICAgPHN0b3Agb2Zmc2V0PSIwJSIgc3RvcC1jb2xvcj0iIzFCNjYwRiIvPiYjeGE7ICAgICAgICAgICAgPHN0b3Agb2Zmc2V0PSIxMDAlIiBzdG9wLWNvbG9yPSIjNkNBRTNFIi8+JiN4YTsgICAgICAgIDwvbGluZWFyR3JhZGllbnQ+JiN4YTsgICAgPC9kZWZzPiYjeGE7ICAgIDxnIGZpbGwtcnVsZT0iZXZlbm9kZCIgZmlsbD0ibm9uZSIgc3Ryb2tlLXdpZHRoPSIxIiBzdHJva2U9Im5vbmUiIGlkPSJJY29uLUFyY2hpdGVjdHVyZS82NC9BcmNoX0FtYXpvbi1TaW1wbGUtU3RvcmFnZS1TZXJ2aWNlXzY0Ij4mI3hhOyAgICAgICAgPGcgZmlsbD0idXJsKCNsaW5lYXJHcmFkaWVudC0xKSIgaWQ9IlJlY3RhbmdsZSI+JiN4YTsgICAgICAgICAgICA8cmVjdCBoZWlnaHQ9IjgwIiB3aWR0aD0iODAiIHk9IjAiIHg9IjAiLz4mI3hhOyAgICAgICAgPC9nPiYjeGE7ICAgICAgICA8ZyBmaWxsPSIjRkZGRkZGIiB0cmFuc2Zvcm09InRyYW5zbGF0ZSg4LjAwMDAwMCwgOC4wMDAwMDApIiBpZD0iSWNvbi1TZXJ2aWNlLzY0L0FtYXpvbi1TaW1wbGUtU3RvcmFnZS1TZXJ2aWNlXzY0Ij4mI3hhOyAgICAgICAgICAgIDxwYXRoIGlkPSJBbWF6b24tU2ltcGxlLVN0b3JhZ2UtU2VydmljZS1JY29uXzY0X1NxdWlkIiBkPSJNNTIuODM1OSwzNC44OTI2IEw1My4yMTk5LDMyLjE4ODYgQzU2Ljc2MDksMzQuMzA5NiA1Ni44MDY5LDM1LjE4NTYgNTYuODA1OTEzMiwzNS4yMDk2IEM1Ni43OTk5LDM1LjIxNDYgNTYuMTk1OSwzNS43MTg2IDUyLjgzNTksMzQuODkyNiBMNTIuODM1OSwzNC44OTI2IFogTTUwLjg5MjksMzQuMzUyNiBDNDQuNzcyOSwzMi41MDA2IDM2LjI0OTksMjguNTkwNiAzMi44MDA5LDI2Ljk2MDYgQzMyLjgwMDksMjYuOTQ2NiAzMi44MDQ5LDI2LjkzMzYgMzIuODA0OSwyNi45MTk2IEMzMi44MDQ5LDI1LjU5NDYgMzEuNzI2OSwyNC41MTY2IDMwLjQwMDksMjQuNTE2NiBDMjkuMDc2OSwyNC41MTY2IDI3Ljk5ODksMjUuNTk0NiAyNy45OTg5LDI2LjkxOTYgQzI3Ljk5ODksMjguMjQ0NiAyOS4wNzY5LDI5LjMyMjYgMzAuNDAwOSwyOS4zMjI2IEMzMC45ODI5LDI5LjMyMjYgMzEuNTEwOSwyOS4xMDU2IDMxLjkyNzksMjguNzYwNiBDMzUuOTg1OSwzMC42ODE2IDQ0LjQ0MjksMzQuNTM0NiA1MC42MDc5LDM2LjM1NDYgTDQ4LjE2OTksNTMuNTYwNiBDNDguMTYyOSw1My42MDc2IDQ4LjE1OTksNTMuNjU0NiA0OC4xNTk5LDUzLjcwMTYgQzQ4LjE1OTksNTUuMjE2NiA0MS40NTI5LDU3Ljk5OTYgMzAuNDkzOSw1Ny45OTk2IEMxOS40MTg5LDU3Ljk5OTYgMTIuNjQwOSw1NS4yMTY2IDEyLjY0MDksNTMuNzAxNiBDMTIuNjQwOSw1My42NTU2IDEyLjYzNzksNTMuNjEwNiAxMi42MzE5LDUzLjU2NTYgTDcuNTM3OSwxNi4zNTg2IEMxMS45NDY5LDE5LjM5MzYgMjEuNDI5OSwyMC45OTk2IDMwLjQ5OTksMjAuOTk5NiBDMzkuNTU1OSwyMC45OTk2IDQ5LjAyMjksMTkuMzk5NiA1My40NDA5LDE2LjM3MzYgTDUwLjg5MjksMzQuMzUyNiBaIE02Ljk5OTksMTIuNDc3NiBDNy4wNzE5LDExLjE2MTYgMTQuNjMzOSw1Ljk5OTYgMzAuNDk5OSw1Ljk5OTYgQzQ2LjM2MzksNS45OTk2IDUzLjkyNjksMTEuMTYwNiA1My45OTk5LDEyLjQ3NzYgTDUzLjk5OTksMTIuOTI2NiBDNTMuMTI5OSwxNS44Nzc2IDQzLjMyOTksMTguOTk5NiAzMC40OTk5LDE4Ljk5OTYgQzE3LjY0NzksMTguOTk5NiA3Ljg0MjksMTUuODY3NiA2Ljk5OTksMTIuOTEyNiBMNi45OTk5LDEyLjQ3NzYgWiBNNTUuOTk5OSwxMi40OTk2IEM1NS45OTk5LDkuMDM0NiA0Ni4wNjU5LDMuOTk5NiAzMC40OTk5LDMuOTk5NiBDMTQuOTMzOSwzLjk5OTYgNC45OTk5LDkuMDM0NiA0Ljk5OTksMTIuNDk5NiBMNS4wOTM5LDEzLjI1MzYgTDEwLjY0MTksNTMuNzc3NiBDMTAuNzc0OSw1OC4zMDk2IDIyLjg2MDksNTkuOTk5NiAzMC40OTM5LDU5Ljk5OTYgQzM5Ljk2NTksNTkuOTk5NiA1MC4wMjg5LDU3LjgyMTYgNTAuMTU4OSw1My43ODA2IEw1Mi41NTQ5LDM2Ljg4MzYgQzUzLjg4NzksMzcuMjAyNiA1NC45ODQ5LDM3LjM2NTYgNTUuODY1OSwzNy4zNjU2IEM1Ny4wNDg5LDM3LjM2NTYgNTcuODQ4OSwzNy4wNzY2IDU4LjMzMzksMzYuNDk4NiBDNTguNzMxOSwzNi4wMjQ2IDU4Ljg4MzksMzUuNDUwNiA1OC43Njk5LDM0LjgzOTYgQzU4LjUxMDksMzMuNDU1NiA1Ni44Njc5LDMxLjk2MzYgNTMuNTIxOSwzMC4wNTQ2IEw1NS44OTc5LDEzLjI5MjYgTDU1Ljk5OTksMTIuNDk5NiBaIi8+JiN4YTsgICAgICAgIDwvZz4mI3hhOyAgICA8L2c+JiN4YTs8L3N2Zz4=;" vertex="1" parent="1">
          <mxGeometry x="922" y="236" width="48" height="48" as="geometry" />
        </mxCell>
        <mxCell id="isHLi1uxbtspG-2-zyCt-5" value="Browser" style="shape=image;verticalLabelPosition=bottom;verticalAlign=top;imageAspect=0;aspect=fixed;image=data:image/svg+xml,PHN2ZyB4bWxucz0iaHR0cDovL3d3dy53My5vcmcvMjAwMC9zdmciIHZpZXdCb3g9IjAgMCA0OCA0OCI+PGRlZnM+PHJhZGlhbEdyYWRpZW50IGlkPSJtb3ppbGxhZmlyZWZveGJyb3dzZXJfc3ZnX19iIiBjeD0iMzkyLjgxIiBjeT0iNjEuMTYiIHI9IjU1NC4xNSIgZ3JhZGllbnRUcmFuc2Zvcm09InNjYWxlKDEuMTA4NyAuOTAxOTMpIiBncmFkaWVudFVuaXRzPSJ1c2VyU3BhY2VPblVzZSI+PHN0b3Agb2Zmc2V0PSIuMTMiIHN0b3AtY29sb3I9IiNmZmJkNGYiLz48c3RvcCBvZmZzZXQ9Ii4yOCIgc3RvcC1jb2xvcj0iI2ZmOTgwZSIvPjxzdG9wIG9mZnNldD0iLjQ3IiBzdG9wLWNvbG9yPSIjZmYzNzUwIi8+PHN0b3Agb2Zmc2V0PSIuNzgiIHN0b3AtY29sb3I9IiNlYjA4NzgiLz48c3RvcCBvZmZzZXQ9Ii44NiIgc3RvcC1jb2xvcj0iI2U1MDA4MCIvPjwvcmFkaWFsR3JhZGllbnQ+PHJhZGlhbEdyYWRpZW50IGlkPSJtb3ppbGxhZmlyZWZveGJyb3dzZXJfc3ZnX19jIiBjeD0iMjI2LjU2IiBjeT0iMjkwLjE4IiByPSI1NTQuMTUiIGdyYWRpZW50VHJhbnNmb3JtPSJzY2FsZSgxLjEwODcgLjkwMTkzKSIgZ3JhZGllbnRVbml0cz0idXNlclNwYWNlT25Vc2UiPjxzdG9wIG9mZnNldD0iLjMiIHN0b3AtY29sb3I9IiM5NjBlMTgiLz48c3RvcCBvZmZzZXQ9Ii4zNSIgc3RvcC1jb2xvcj0iI2IxMTkyNyIgc3RvcC1vcGFjaXR5PSIuNzQiLz48c3RvcCBvZmZzZXQ9Ii40MyIgc3RvcC1jb2xvcj0iI2RiMjkzZCIgc3RvcC1vcGFjaXR5PSIuMzQiLz48c3RvcCBvZmZzZXQ9Ii41IiBzdG9wLWNvbG9yPSIjZjUzMzRiIiBzdG9wLW9wYWNpdHk9Ii4wOSIvPjxzdG9wIG9mZnNldD0iLjUzIiBzdG9wLWNvbG9yPSIjZmYzNzUwIiBzdG9wLW9wYWNpdHk9IjAiLz48L3JhZGlhbEdyYWRpZW50PjxyYWRpYWxHcmFkaWVudCBpZD0ibW96aWxsYWZpcmVmb3hicm93c2VyX3N2Z19fZCIgY3g9IjM5NS40NCIgY3k9Ii0xNy45NzMiIHI9IjIxMC4yMSIgZ3JhZGllbnRUcmFuc2Zvcm09InNjYWxlKC43Njc0NyAxLjMwMykiIGdyYWRpZW50VW5pdHM9InVzZXJTcGFjZU9uVXNlIj48c3RvcCBvZmZzZXQ9Ii4xMyIgc3RvcC1jb2xvcj0iI2ZmZjQ0ZiIvPjxzdG9wIG9mZnNldD0iLjUzIiBzdG9wLWNvbG9yPSIjZmY5ODBlIi8+PC9yYWRpYWxHcmFkaWVudD48cmFkaWFsR3JhZGllbnQgaWQ9Im1vemlsbGFmaXJlZm94YnJvd3Nlcl9zdmdfX2UiIGN4PSIyMDYuMjciIGN5PSIzNzMuMjQiIHI9IjIyMy41IiBncmFkaWVudFRyYW5zZm9ybT0ic2NhbGUoLjk1NTIgMS4wNDY5KSIgZ3JhZGllbnRVbml0cz0idXNlclNwYWNlT25Vc2UiPjxzdG9wIG9mZnNldD0iLjM1IiBzdG9wLWNvbG9yPSIjM2E4ZWU2Ii8+PHN0b3Agb2Zmc2V0PSIuNjciIHN0b3AtY29sb3I9IiM5MDU5ZmYiLz48c3RvcCBvZmZzZXQ9IjEiIHN0b3AtY29sb3I9IiNjMTM5ZTYiLz48L3JhZGlhbEdyYWRpZW50PjxyYWRpYWxHcmFkaWVudCBpZD0ibW96aWxsYWZpcmVmb3hicm93c2VyX3N2Z19fZiIgY3g9IjI3MS42MiIgY3k9IjIwMC45IiByPSIxMzEuODYiIGdyYWRpZW50VHJhbnNmb3JtPSJzY2FsZSguOTU1MiAxLjA0NjkpIiBncmFkaWVudFVuaXRzPSJ1c2VyU3BhY2VPblVzZSI+PHN0b3Agb2Zmc2V0PSIuMjEiIHN0b3AtY29sb3I9IiM5MDU5ZmYiIHN0b3Atb3BhY2l0eT0iMCIvPjxzdG9wIG9mZnNldD0iLjk3IiBzdG9wLWNvbG9yPSIjNmUwMDhiIiBzdG9wLW9wYWNpdHk9Ii42Ii8+PC9yYWRpYWxHcmFkaWVudD48cmFkaWFsR3JhZGllbnQgaWQ9Im1vemlsbGFmaXJlZm94YnJvd3Nlcl9zdmdfX2ciIGN4PSIyNDAuNjEiIGN5PSIzNi44MDciIHI9IjE3MC4wMiIgZ3JhZGllbnRUcmFuc2Zvcm09InNjYWxlKC45OTgyMyAxLjAwMTgpIiBncmFkaWVudFVuaXRzPSJ1c2VyU3BhY2VPblVzZSI+PHN0b3Agb2Zmc2V0PSIuMSIgc3RvcC1jb2xvcj0iI2ZmZTIyNiIvPjxzdG9wIG9mZnNldD0iLjc5IiBzdG9wLWNvbG9yPSIjZmY3MTM5Ii8+PC9yYWRpYWxHcmFkaWVudD48cmFkaWFsR3JhZGllbnQgaWQ9Im1vemlsbGFmaXJlZm94YnJvd3Nlcl9zdmdfX2giIGN4PSIzNjIuMDgiIGN5PSItODEuNzA5IiByPSI3NDIuMzkiIGdyYWRpZW50VHJhbnNmb3JtPSJzY2FsZSgxLjA5MTUgLjkxNjIxKSIgZ3JhZGllbnRVbml0cz0idXNlclNwYWNlT25Vc2UiPjxzdG9wIG9mZnNldD0iLjExIiBzdG9wLWNvbG9yPSIjZmZmNDRmIi8+PHN0b3Agb2Zmc2V0PSIuNDYiIHN0b3AtY29sb3I9IiNmZjk4MGUiLz48c3RvcCBvZmZzZXQ9Ii43MiIgc3RvcC1jb2xvcj0iI2ZmMzY0NyIvPjxzdG9wIG9mZnNldD0iLjkiIHN0b3AtY29sb3I9IiNlMzE1ODciLz48L3JhZGlhbEdyYWRpZW50PjxyYWRpYWxHcmFkaWVudCBpZD0ibW96aWxsYWZpcmVmb3hicm93c2VyX3N2Z19faSIgY3g9IjQ3NS41OSIgY3k9Ii00MS41ODgiIHI9Ijc3OS45MSIgZ3JhZGllbnRUcmFuc2Zvcm09InNjYWxlKC42ODgxOCAxLjQ1MzEpIiBncmFkaWVudFVuaXRzPSJ1c2VyU3BhY2VPblVzZSI+PHN0b3Agb2Zmc2V0PSIwIiBzdG9wLWNvbG9yPSIjZmZmNDRmIi8+PHN0b3Agb2Zmc2V0PSIuMyIgc3RvcC1jb2xvcj0iI2ZmOTgwZSIvPjxzdG9wIG9mZnNldD0iLjU3IiBzdG9wLWNvbG9yPSIjZmYzNjQ3Ii8+PHN0b3Agb2Zmc2V0PSIuNzQiIHN0b3AtY29sb3I9IiNlMzE1ODciLz48L3JhZGlhbEdyYWRpZW50PjxyYWRpYWxHcmFkaWVudCBpZD0ibW96aWxsYWZpcmVmb3hicm93c2VyX3N2Z19faiIgY3g9IjIzOS44IiBjeT0iOTkuMDA2IiByPSI0NjEuMTEiIGdyYWRpZW50VHJhbnNmb3JtPSJzY2FsZSgxLjAwODkgLjk5MTE4KSIgZ3JhZGllbnRVbml0cz0idXNlclNwYWNlT25Vc2UiPjxzdG9wIG9mZnNldD0iLjE0IiBzdG9wLWNvbG9yPSIjZmZmNDRmIi8+PHN0b3Agb2Zmc2V0PSIuNDgiIHN0b3AtY29sb3I9IiNmZjk4MGUiLz48c3RvcCBvZmZzZXQ9Ii42NiIgc3RvcC1jb2xvcj0iI2ZmMzY0NyIvPjxzdG9wIG9mZnNldD0iLjkiIHN0b3AtY29sb3I9IiNlMzE1ODciLz48L3JhZGlhbEdyYWRpZW50PjxyYWRpYWxHcmFkaWVudCBpZD0ibW96aWxsYWZpcmVmb3hicm93c2VyX3N2Z19fayIgY3g9IjM0My4wNCIgY3k9IjEzMi4wMSIgcj0iNTI4Ljg5IiBncmFkaWVudFRyYW5zZm9ybT0ic2NhbGUoMS4wNTczIC45NDU4NCkiIGdyYWRpZW50VW5pdHM9InVzZXJTcGFjZU9uVXNlIj48c3RvcCBvZmZzZXQ9Ii4wOSIgc3RvcC1jb2xvcj0iI2ZmZjQ0ZiIvPjxzdG9wIG9mZnNldD0iLjYzIiBzdG9wLWNvbG9yPSIjZmY5ODBlIi8+PC9yYWRpYWxHcmFkaWVudD48bGluZWFyR3JhZGllbnQgaWQ9Im1vemlsbGFmaXJlZm94YnJvd3Nlcl9zdmdfX2EiIHgxPSI0NDEuOTgiIHgyPSI2Mi4xMjYiIHkxPSI3NS42MzEiIHkyPSI0NTQuMjciIGdyYWRpZW50VHJhbnNmb3JtPSJzY2FsZSguOTgzNzQgMS4wMTY1KSIgZ3JhZGllbnRVbml0cz0idXNlclNwYWNlT25Vc2UiPjxzdG9wIG9mZnNldD0iLjA1IiBzdG9wLWNvbG9yPSIjZmZmNDRmIi8+PHN0b3Agb2Zmc2V0PSIuMzciIHN0b3AtY29sb3I9IiNmZjk4MGUiLz48c3RvcCBvZmZzZXQ9Ii41MyIgc3RvcC1jb2xvcj0iI2ZmMzY0NyIvPjxzdG9wIG9mZnNldD0iLjciIHN0b3AtY29sb3I9IiNlMzE1ODciLz48L2xpbmVhckdyYWRpZW50PjxsaW5lYXJHcmFkaWVudCBpZD0ibW96aWxsYWZpcmVmb3hicm93c2VyX3N2Z19fbCIgeDE9IjQwNi42MSIgeDI9IjEwNC4wOSIgeTE9IjY4LjMxMiIgeTI9IjQwOS44NyIgZ3JhZGllbnRUcmFuc2Zvcm09InNjYWxlKC45ODM3NCAxLjAxNjUpIiBncmFkaWVudFVuaXRzPSJ1c2VyU3BhY2VPblVzZSI+PHN0b3Agb2Zmc2V0PSIuMTciIHN0b3AtY29sb3I9IiNmZmY0NGYiIHN0b3Atb3BhY2l0eT0iLjgiLz48c3RvcCBvZmZzZXQ9Ii42IiBzdG9wLWNvbG9yPSIjZmZmNDRmIiBzdG9wLW9wYWNpdHk9IjAiLz48L2xpbmVhckdyYWRpZW50PjwvZGVmcz48cGF0aCBmaWxsPSJ1cmwoI21vemlsbGFmaXJlZm94YnJvd3Nlcl9zdmdfX2EpIiBkPSJNNDc4LjcxIDE2Ni4zNWMtMTAuNDQ1LTI1LjEyNC0zMS42LTUyLjI0OC00OC4yMTItNjAuODIxIDEzLjUyIDI2LjUwNSAyMS4zNDUgNTMuMDkzIDI0LjMzNSA3Mi45MzYgMCAuMDM5LjAxNS4xMzYuMDQ3LjRDNDI3LjcwNSAxMTEuMTMyIDM4MS42MjYgODMuODIgMzQ0IDI0LjM1NWMtMS45LTMuMDA3LTMuODA1LTYuMDIyLTUuNjYxLTkuMmE3My43MTYgNzMuNzE2IDAgMCAxLTIuNjQ2LTQuOTcyQTQzLjcgNDMuNyAwIDAgMSAzMzIuMS42NzdhLjYyNi42MjYgMCAwIDAtLjU0Ni0uNjQ0LjgxOC44MTggMCAwIDAtLjQ1MSAwYy0uMDM0LjAxMi0uMDg0LjA1MS0uMTIuMDY1LS4wNTMuMDIxLS4xMi4wNjktLjE3Ni4xLjAyNy0uMDM2LjA4My0uMTE3LjEtLjEzNi02MC4zNyAzNS4zNTYtODAuODUgMTAwLjc2LTgyLjczMiAxMzMuNDhhMTIwLjI1IDEyMC4yNSAwIDAgMC02Ni4xNDIgMjUuNDg4IDcxLjM1NSA3MS4zNTUgMCAwIDAtNi4yMjUtNC43IDExMS4zNCAxMTEuMzQgMCAwIDEtLjY3NC01OC43MzJjLTI0LjY4OCAxMS4yNDEtNDMuODkgMjkuMDEtNTcuODUgNDQuN2gtLjExMWMtOS41MjctMTIuMDY3LTguODU1LTUxLjg3My04LjMxMi02MC4xODQtLjExNC0uNTE1LTcuMTA3IDMuNjMtOC4wMjMgNC4yNTVhMTc1LjA3IDE3NS4wNyAwIDAgMC0yMy40ODYgMjAuMTIgMjEwLjQ4IDIxMC40OCAwIDAgMC0yMi40NDIgMjYuOTEzYzAgLjAxMi0uMDA3LjAyNi0uMDExLjAzOCAwLS4wMTMuMDA3LS4wMjYuMDExLS4wMzhhMjAyLjg0IDIwMi44NCAwIDAgMC0zMi4yNDcgNzIuODA1Yy0uMTE1LjUyMS0uMjEyIDEuMDYxLS4zMjQgMS41ODYtLjQ1MiAyLjExNi0yLjA4IDEyLjctMi4zNjUgMTUtLjAyMi4xNzctLjAzMi4zNDctLjA1My41MjRhMjI5LjA3IDIyOS4wNyAwIDAgMC0zLjkgMzMuMTU3YzAgLjQxLS4wMjUuODE2LS4wMjUgMS4yMjcuMDA0IDEzMi43MSAxMDcuNiAyNDAuMyAyNDAuMzMgMjQwLjMgMTE4Ljg2IDAgMjE3LjU2LTg2LjI4OCAyMzYuODgtMTk5LjYzLjQwNy0zLjA3Ni43MzMtNi4xNjggMS4wOTItOS4yNzEgNC43NzctNDEuMjEtLjUzLTg0LjUyNS0xNS41ODctMTIwLjc1em0tMjc3IDE4OC4wOWMxLjEyNC41MzcgMi4xOCAxLjEyNCAzLjMzNCAxLjYzOS4wNDguMDMzLjExNC4wNy4xNjMuMWExMjYuMTkgMTI2LjE5IDAgMCAxLTMuNDk3LTEuNzM5em0yNTMuMTgzLTE3NS41Mi0uMDMyLS4yMzNjLjAxMi4wODUuMDI3LjE3NC4wNC4yNTl6IiB0cmFuc2Zvcm09InRyYW5zbGF0ZSgtLjc3NCkgc2NhbGUoLjA5Njc3KSIvPjxwYXRoIGZpbGw9InVybCgjbW96aWxsYWZpcmVmb3hicm93c2VyX3N2Z19fYikiIGQ9Ik00NzguNzEgMTY2LjM1Yy0xMC40NDUtMjUuMTI0LTMxLjYtNTIuMjQ4LTQ4LjIxMi02MC44MjEgMTMuNTIgMjYuNTA1IDIxLjM0NSA1My4wOTMgMjQuMzM1IDcyLjkzNiAwLS4wNTguMDExLjA0OC4wMzYuMjI2LjAxMi4wODUuMDI3LjE3NC4wNC4yNTkgMjIuNjc1IDYxLjQ3IDEwLjMyMiAxMjMuOTgtNy40NzkgMTYyLjE4LTI3LjUzOSA1OS4xLTk0LjIxNSAxMTkuNjctMTk4LjU4IDExNi43Mi0xMTIuNzYtMy4xOTMtMjEyLjA5LTg2Ljg1Ni0yMzAuNjMtMTk2LjQzLTMuMzc5LTE3LjI4IDAtMjYuMDU0IDEuNy00MC4wODQtMi4wNzEgMTAuODE2LTIuODYgMTMuOTQtMy45IDMzLjE1NyAwIC40MS0uMDI1LjgxNi0uMDI1IDEuMjI3LjAwMiAxMzIuNzEgMTA3LjYgMjQwLjI5IDI0MC4zMyAyNDAuMjkgMTE4Ljg2IDAgMjE3LjU2LTg2LjI4OCAyMzYuODgtMTk5LjYzLjQwNy0zLjA3Ni43MzMtNi4xNjggMS4wOTItOS4yNzEgNC43NzctNDEuMjEtLjUzLTg0LjUyNS0xNS41ODctMTIwLjc1eiIgdHJhbnNmb3JtPSJ0cmFuc2xhdGUoLS43NzQpIHNjYWxlKC4wOTY3NykiLz48cGF0aCBmaWxsPSJ1cmwoI21vemlsbGFmaXJlZm94YnJvd3Nlcl9zdmdfX2MpIiBkPSJNNDc4LjcxIDE2Ni4zNWMtMTAuNDQ1LTI1LjEyNC0zMS42LTUyLjI0OC00OC4yMTItNjAuODIxIDEzLjUyIDI2LjUwNSAyMS4zNDUgNTMuMDkzIDI0LjMzNSA3Mi45MzYgMC0uMDU4LjAxMS4wNDguMDM2LjIyNi4wMTIuMDg1LjAyNy4xNzQuMDQuMjU5IDIyLjY3NSA2MS40NyAxMC4zMjIgMTIzLjk4LTcuNDc5IDE2Mi4xOC0yNy41MzkgNTkuMS05NC4yMTUgMTE5LjY3LTE5OC41OCAxMTYuNzItMTEyLjc2LTMuMTkzLTIxMi4wOS04Ni44NTYtMjMwLjYzLTE5Ni40My0zLjM3OS0xNy4yOCAwLTI2LjA1NCAxLjctNDAuMDg0LTIuMDcxIDEwLjgxNi0yLjg2IDEzLjk0LTMuOSAzMy4xNTcgMCAuNDEtLjAyNS44MTYtLjAyNSAxLjIyNy4wMDIgMTMyLjcxIDEwNy42IDI0MC4yOSAyNDAuMzMgMjQwLjI5IDExOC44NiAwIDIxNy41Ni04Ni4yODggMjM2Ljg4LTE5OS42My40MDctMy4wNzYuNzMzLTYuMTY4IDEuMDkyLTkuMjcxIDQuNzc3LTQxLjIxLS41My04NC41MjUtMTUuNTg3LTEyMC43NXoiIHRyYW5zZm9ybT0idHJhbnNsYXRlKC0uNzc0KSBzY2FsZSguMDk2NzcpIi8+PHBhdGggZmlsbD0idXJsKCNtb3ppbGxhZmlyZWZveGJyb3dzZXJfc3ZnX19kKSIgZD0iTTM2MS45MiAxOTQuNmMuNTI0LjM2OCAxIC43MzQgMS40OTMgMS4xYTEzMC43MSAxMzAuNzEgMCAwIDAtMjIuMzEtMjkuMTEyQzI2Ni4zOTggOTEuODkyIDMyMS41MTQgNC42MjggMzMwLjgwOS4xOThjLjAyNy0uMDM2LjA4My0uMTE3LjEtLjEzNi02MC4zNyAzNS4zNTYtODAuODUgMTAwLjc2LTgyLjczMiAxMzMuNDggMi44LS4xOTQgNS41OTItLjQyOSA4LjQ0Mi0uNDI5IDQ1LjA1MSAwIDg0LjI4OSAyNC43NyAxMDUuMyA2MS40ODd6IiB0cmFuc2Zvcm09InRyYW5zbGF0ZSgtLjc3NCkgc2NhbGUoLjA5Njc3KSIvPjxwYXRoIGZpbGw9InVybCgjbW96aWxsYWZpcmVmb3hicm93c2VyX3N2Z19fZSkiIGQ9Ik0yNTYuNzcgMjA5LjUxYy0uMzkzIDUuOTc4LTIxLjUxNCAyNi41OTMtMjguOSAyNi41OTMtNjguMzM5IDAtNzkuNDMyIDQxLjMzNS03OS40MzIgNDEuMzM1IDMuMDI3IDM0LjgxIDI3LjI2MSA2My40NzUgNTYuNjExIDc4LjY0MyAxLjMzOS42OTIgMi42OTQgMS4zMTcgNC4wNSAxLjkzNWExMzIuNzcgMTMyLjc3IDAgMCAwIDcuMDU5IDIuODg2IDEwNi43NCAxMDYuNzQgMCAwIDAgMzEuMjcxIDYuMDMxYzExOS43OCA1LjYxOCAxNDIuOTktMTQzLjE5IDU2LjU0NS0xODYuNDEgMjIuMTM3LTMuODUgNDUuMTE1IDUuMDUzIDU3Ljk0NyAxNC4wNjctMjEuMDEyLTM2LjcxNC02MC4yNS02MS40ODQtMTA1LjMtNjEuNDg0LTIuODUgMC01LjY0MS4yMzUtOC40NDIuNDI5YTEyMC4yNSAxMjAuMjUgMCAwIDAtNjYuMTQyIDI1LjQ4OGMzLjY2NCAzLjEgNy44IDcuMjQ0IDE2LjUxNCAxNS44MjggMTYuMzAyIDE2LjA2NyA1OC4xMyAzMi43MDUgNTguMjE5IDM0LjY1N3oiIHRyYW5zZm9ybT0idHJhbnNsYXRlKC0uNzc0KSBzY2FsZSguMDk2NzcpIi8+PHBhdGggZmlsbD0idXJsKCNtb3ppbGxhZmlyZWZveGJyb3dzZXJfc3ZnX19mKSIgZD0iTTI1Ni43NyAyMDkuNTFjLS4zOTMgNS45NzgtMjEuNTE0IDI2LjU5My0yOC45IDI2LjU5My02OC4zMzkgMC03OS40MzIgNDEuMzM1LTc5LjQzMiA0MS4zMzUgMy4wMjcgMzQuODEgMjcuMjYxIDYzLjQ3NSA1Ni42MTEgNzguNjQzIDEuMzM5LjY5MiAyLjY5NCAxLjMxNyA0LjA1IDEuOTM1YTEzMi43NyAxMzIuNzcgMCAwIDAgNy4wNTkgMi44ODYgMTA2Ljc0IDEwNi43NCAwIDAgMCAzMS4yNzEgNi4wMzFjMTE5Ljc4IDUuNjE4IDE0Mi45OS0xNDMuMTkgNTYuNTQ1LTE4Ni40MSAyMi4xMzctMy44NSA0NS4xMTUgNS4wNTMgNTcuOTQ3IDE0LjA2Ny0yMS4wMTItMzYuNzE0LTYwLjI1LTYxLjQ4NC0xMDUuMy02MS40ODQtMi44NSAwLTUuNjQxLjIzNS04LjQ0Mi40MjlhMTIwLjI1IDEyMC4yNSAwIDAgMC02Ni4xNDIgMjUuNDg4YzMuNjY0IDMuMSA3LjggNy4yNDQgMTYuNTE0IDE1LjgyOCAxNi4zMDIgMTYuMDY3IDU4LjEzIDMyLjcwNSA1OC4yMTkgMzQuNjU3eiIgdHJhbnNmb3JtPSJ0cmFuc2xhdGUoLS43NzQpIHNjYWxlKC4wOTY3NykiLz48cGF0aCBmaWxsPSJ1cmwoI21vemlsbGFmaXJlZm94YnJvd3Nlcl9zdmdfX2cpIiBkPSJNMTcwLjgzIDE1MS4wNGEyNDQuMDQgMjQ0LjA0IDAgMCAxIDQuOTgxIDMuMyAxMTEuMzQgMTExLjM0IDAgMCAxLS42NzQtNTguNzMyYy0yNC42ODggMTEuMjQxLTQzLjg5IDI5LjAxLTU3Ljg1IDQ0LjcgMS4xNTUtLjAzMyAzNi4wMTQtLjY2IDUzLjU0MyAxMC43MzJ6IiB0cmFuc2Zvcm09InRyYW5zbGF0ZSgtLjc3NCkgc2NhbGUoLjA5Njc3KSIvPjxwYXRoIGZpbGw9InVybCgjbW96aWxsYWZpcmVmb3hicm93c2VyX3N2Z19faCkiIGQ9Ik0xOC4yMjMgMjYxLjQxYzE4LjU0MyAxMDkuNTggMTE3Ljg4IDE5My4yNCAyMzAuNjMgMTk2LjQzIDEwNC4zNiAyLjk1NCAxNzEuMDQtNTcuNjIgMTk4LjU4LTExNi43MiAxNy44LTM4LjIgMzAuMTU0LTEwMC43IDcuNDc5LTE2Mi4xOGwtLjAwOC0uMDI2LS4wMzItLjIzM2MtLjAyNS0uMTc4LS4wNC0uMjg0LS4wMzYtLjIyNiAwIC4wMzkuMDE1LjEzNi4wNDcuNCA4LjUyNCA1NS42NjEtMTkuNzkgMTA5LjU4LTY0LjA1MSAxNDYuMDRsLS4xMzMuMzEzYy04Ni4yNDUgNzAuMjIzLTE2OC43NyA0Mi4zNjgtMTg1LjQ4IDMwLjk2NmExNDQuMTEgMTQ0LjExIDAgMCAxLTMuNS0xLjc0M2MtNTAuMjgyLTI0LjAyOS03MS4wNTQtNjkuODM4LTY2LjYtMTA5LjEyLTQyLjQ1NyAwLTU2LjkzNC0zNS44MDktNTYuOTM0LTM1LjgwOXMzOC4xMTktMjcuMTc5IDg4LjM1OC0zLjU0MWM0Ni41MyAyMS44OTMgOTAuMjI4IDMuNTQzIDkwLjIzMyAzLjU0MS0uMDg5LTEuOTUyLTQxLjkxNy0xOC41OS01OC4yMjMtMzQuNjU2LTguNzEzLTguNTg0LTEyLjg1LTEyLjcyMy0xNi41MTQtMTUuODI4YTcxLjM1NSA3MS4zNTUgMCAwIDAtNi4yMjUtNC43IDI4Mi45MyAyODIuOTMgMCAwIDAtNC45ODEtMy4zYy0xNy41MjgtMTEuMzkyLTUyLjM4OC0xMC43NjUtNTMuNTQzLTEwLjczNWgtLjExMWMtOS41MjctMTIuMDY3LTguODU1LTUxLjg3My04LjMxMi02MC4xODQtLjExNC0uNTE1LTcuMTA3IDMuNjMtOC4wMjMgNC4yNTVhMTc1LjA3IDE3NS4wNyAwIDAgMC0yMy40ODYgMjAuMTIgMjEwLjQ4IDIxMC40OCAwIDAgMC0yMi40NDIgMjYuOTE5YzAgLjAxMi0uMDA3LjAyNi0uMDExLjAzOCAwLS4wMTMuMDA3LS4wMjYuMDExLS4wMzhhMjAyLjg0IDIwMi44NCAwIDAgMC0zMi4yNDcgNzIuODA1Yy0uMTE1LjUyMS04LjY1IDM3Ljg0Mi00LjQ0IDU3LjE5OXoiIHRyYW5zZm9ybT0idHJhbnNsYXRlKC0uNzc0KSBzY2FsZSguMDk2NzcpIi8+PHBhdGggZmlsbD0idXJsKCNtb3ppbGxhZmlyZWZveGJyb3dzZXJfc3ZnX19pKSIgZD0iTTM0MS4xIDE2Ni41OWExMzAuNzEgMTMwLjcxIDAgMCAxIDIyLjMxIDI5LjExMmMxLjMyMy45OTQgMi41NTkgMS45ODUgMy42MDggMi45NTIgNTQuNDgyIDUwLjIgMjUuOTM2IDEyMS4yIDIzLjgwNyAxMjYuMjYgNDQuMjYxLTM2LjQ2IDcyLjU3NS05MC4zODMgNjQuMDUxLTE0Ni4wNC0yNy4xNzUtNjcuNzMyLTczLjI1NC05NS4wNDQtMTEwLjg4LTE1NC41MS0xLjktMy4wMDctMy44MDUtNi4wMjItNS42NjEtOS4yYTczLjcxNiA3My43MTYgMCAwIDEtMi42NDYtNC45NzIgNDMuNyA0My43IDAgMCAxLTMuNTkzLTkuNTA2LjYyNi42MjYgMCAwIDAtLjU0Ni0uNjQ0LjgxOC44MTggMCAwIDAtLjQ1MSAwYy0uMDM0LjAxMi0uMDg0LjA1MS0uMTIuMDY1LS4wNTMuMDIxLS4xMi4wNjktLjE3Ni4xLTkuMjkxIDQuNDI4LTY0LjQwNyA5MS42OTQgMTAuMjk4IDE2Ni4zOXoiIHRyYW5zZm9ybT0idHJhbnNsYXRlKC0uNzc0KSBzY2FsZSguMDk2NzcpIi8+PHBhdGggZmlsbD0idXJsKCNtb3ppbGxhZmlyZWZveGJyb3dzZXJfc3ZnX19qKSIgZD0iTTM2Ny4wMiAxOTguNjVjLTEuMDQ5LS45NjctMi4yODUtMS45NTgtMy42MDgtMi45NTItLjQ4OS0uMzY4LS45NjktLjczNC0xLjQ5My0xLjEtMTIuODMyLTkuMDE0LTM1LjgxLTE3LjkxNy01Ny45NDctMTQuMDY3IDg2LjQ0MSA0My4yMTQgNjMuMjM1IDE5Mi4wMy01Ni41NDUgMTg2LjQxYTEwNi43NCAxMDYuNzQgMCAwIDEtMzEuMjcxLTYuMDMxIDEzNC41MSAxMzQuNTEgMCAwIDEtNy4wNTktMi44ODZjLTEuMzU2LS42MTgtMi43MTEtMS4yNDMtNC4wNS0xLjkzNS4wNDguMDMzLjExNC4wNy4xNjMuMSAxNi43MSAxMS40IDk5LjIzOSAzOS4yNTcgMTg1LjQ4LTMwLjk2NmwuMTMzLS4zMTNjMi4xMjktNS4wNTQgMzAuNjc1LTc2LjA1Ny0yMy44MDctMTI2LjI2eiIgdHJhbnNmb3JtPSJ0cmFuc2xhdGUoLS43NzQpIHNjYWxlKC4wOTY3NykiLz48cGF0aCBmaWxsPSJ1cmwoI21vemlsbGFmaXJlZm94YnJvd3Nlcl9zdmdfX2spIiBkPSJNMTQ4LjQ0IDI3Ny40NHMxMS4wOTMtNDEuMzM1IDc5LjQzMi00MS4zMzVjNy4zODggMCAyOC41MDktMjAuNjE1IDI4LjktMjYuNTkzcy00My43IDE4LjM1Mi05MC4yMzMtMy41NDFjLTUwLjIzOS0yMy42MzgtODguMzU4IDMuNTQxLTg4LjM1OCAzLjU0MXMxNC40NzcgMzUuODA5IDU2LjkzNCAzNS44MDljLTQuNDUzIDM5LjI4NiAxNi4zMTkgODUuMSA2Ni42IDEwOS4xMiAxLjEyNC41MzcgMi4xOCAxLjEyNCAzLjMzNCAxLjYzOS0yOS4zNDgtMTUuMTY5LTUzLjU4Mi00My44MzQtNTYuNjA5LTc4LjY0NHoiIHRyYW5zZm9ybT0idHJhbnNsYXRlKC0uNzc0KSBzY2FsZSguMDk2NzcpIi8+PHBhdGggZmlsbD0idXJsKCNtb3ppbGxhZmlyZWZveGJyb3dzZXJfc3ZnX19sKSIgZD0iTTQ3OC43MSAxNjYuMzVjLTEwLjQ0NS0yNS4xMjQtMzEuNi01Mi4yNDgtNDguMjEyLTYwLjgyMSAxMy41MiAyNi41MDUgMjEuMzQ1IDUzLjA5MyAyNC4zMzUgNzIuOTM2IDAgLjAzOS4wMTUuMTM2LjA0Ny40QzQyNy43MDUgMTExLjEzMiAzODEuNjI2IDgzLjgyIDM0NCAyNC4zNTVjLTEuOS0zLjAwNy0zLjgwNS02LjAyMi01LjY2MS05LjJhNzMuNzE2IDczLjcxNiAwIDAgMS0yLjY0Ni00Ljk3MkE0My43IDQzLjcgMCAwIDEgMzMyLjEuNjc3YS42MjYuNjI2IDAgMCAwLS41NDYtLjY0NC44MTguODE4IDAgMCAwLS40NTEgMGMtLjAzNC4wMTItLjA4NC4wNTEtLjEyLjA2NS0uMDUzLjAyMS0uMTIuMDY5LS4xNzYuMS4wMjctLjAzNi4wODMtLjExNy4xLS4xMzYtNjAuMzcgMzUuMzU2LTgwLjg1IDEwMC43Ni04Mi43MzIgMTMzLjQ4IDIuOC0uMTk0IDUuNTkyLS40MjkgOC40NDItLjQyOSA0NS4wNTMgMCA4NC4yOTEgMjQuNzcgMTA1LjMgNjEuNDg0LTEyLjgzMi05LjAxNC0zNS44MS0xNy45MTctNTcuOTQ3LTE0LjA2NyA4Ni40NDEgNDMuMjE0IDYzLjIzNSAxOTIuMDMtNTYuNTQ1IDE4Ni40MWExMDYuNzQgMTA2Ljc0IDAgMCAxLTMxLjI3MS02LjAzMSAxMzQuNTEgMTM0LjUxIDAgMCAxLTcuMDU5LTIuODg2Yy0xLjM1Ni0uNjE4LTIuNzExLTEuMjQzLTQuMDUtMS45MzUuMDQ4LjAzMy4xMTQuMDcuMTYzLjFhMTQ0LjExIDE0NC4xMSAwIDAgMS0zLjUtMS43NDNjMS4xMjQuNTM3IDIuMTggMS4xMjQgMy4zMzQgMS42MzktMjkuMzUtMTUuMTY4LTUzLjU4NC00My44MzMtNTYuNjExLTc4LjY0MyAwIDAgMTEuMDkzLTQxLjMzNSA3OS40MzItNDEuMzM1IDcuMzg4IDAgMjguNTA5LTIwLjYxNSAyOC45LTI2LjU5My0uMDg5LTEuOTUyLTQxLjkxNy0xOC41OS01OC4yMjMtMzQuNjU2LTguNzEzLTguNTg0LTEyLjg1LTEyLjcyMy0xNi41MTQtMTUuODI4YTcxLjM1NSA3MS4zNTUgMCAwIDAtNi4yMjUtNC43IDExMS4zNCAxMTEuMzQgMCAwIDEtLjY3NC01OC43MzJjLTI0LjY4OCAxMS4yNDEtNDMuODkgMjkuMDEtNTcuODUgNDQuN2gtLjExMWMtOS41MjctMTIuMDY3LTguODU1LTUxLjg3My04LjMxMi02MC4xODQtLjExNC0uNTE1LTcuMTA3IDMuNjMtOC4wMjMgNC4yNTVhMTc1LjA3IDE3NS4wNyAwIDAgMC0yMy40ODYgMjAuMTIgMjEwLjQ4IDIxMC40OCAwIDAgMC0yMi40MzUgMjYuOTE2YzAgLjAxMi0uMDA3LjAyNi0uMDExLjAzOCAwLS4wMTMuMDA3LS4wMjYuMDExLS4wMzhhMjAyLjg0IDIwMi44NCAwIDAgMC0zMi4yNDcgNzIuODA1Yy0uMTE1LjUyMS0uMjEyIDEuMDYxLS4zMjQgMS41ODYtLjQ1MiAyLjExNi0yLjQ4NiAxMi44NTMtMi43NyAxNS4xNTYtLjAyMi4xNzcuMDIxLS4xNzYgMCAwYTI3OS41NiAyNzkuNTYgMCAwIDAtMy41NDQgMzMuNTNjMCAuNDEtLjAyNS44MTYtLjAyNSAxLjIyNyAwIDEzMi43MSAxMDcuNiAyNDAuMjkgMjQwLjMyIDI0MC4yOSAxMTguODYgMCAyMTcuNTYtODYuMjg4IDIzNi44OC0xOTkuNjMuNDA3LTMuMDc2LjczMy02LjE2OCAxLjA5Mi05LjI3MSA0Ljc3Ny00MS4yMS0uNTMtODQuNTI1LTE1LjU4Ny0xMjAuNzV6bS0yMy44NDEgMTIuMzQxYy4wMTIuMDg1LjAyNy4xNzQuMDQuMjU5bC0uMDA4LS4wMjZ6IiB0cmFuc2Zvcm09InRyYW5zbGF0ZSgtLjc3NCkgc2NhbGUoLjA5Njc3KSIvPjwvc3ZnPg==" vertex="1" parent="1">
          <mxGeometry x="40" y="236" width="48" height="48" as="geometry" />
        </mxCell>
        <mxCell id="isHLi1uxbtspG-2-zyCt-6" value="Browser cache" style="shape=cylinder3;whiteSpace=wrap;html=1;boundedLbl=1;backgroundOutline=1;size=15;labelPosition=center;verticalLabelPosition=bottom;align=center;verticalAlign=top;aspect=fixed;" vertex="1" parent="1">
          <mxGeometry x="260" y="236" width="36" height="48" as="geometry" />
        </mxCell>
        <mxCell id="isHLi1uxbtspG-2-zyCt-7" value="" style="endArrow=classic;html=1;rounded=0;" edge="1" source="isHLi1uxbtspG-2-zyCt-5" target="isHLi1uxbtspG-2-zyCt-6" parent="1">
          <mxGeometry width="50" height="50" relative="1" as="geometry">
            <mxPoint x="190" y="340" as="sourcePoint" />
            <mxPoint x="240" y="290" as="targetPoint" />
          </mxGeometry>
        </mxCell>
        <mxCell id="isHLi1uxbtspG-2-zyCt-8" value="Checks cache" style="edgeLabel;html=1;align=center;verticalAlign=middle;resizable=0;points=[];" vertex="1" connectable="0" parent="isHLi1uxbtspG-2-zyCt-7">
          <mxGeometry x="-0.228" y="-3" relative="1" as="geometry">
            <mxPoint x="16" y="-3" as="offset" />
          </mxGeometry>
        </mxCell>
        <mxCell id="isHLi1uxbtspG-2-zyCt-9" value="" style="rounded=1;whiteSpace=wrap;html=1;" vertex="1" parent="1">
          <mxGeometry x="569.45" y="110" width="160" height="280" as="geometry" />
        </mxCell>
        <mxCell id="isHLi1uxbtspG-2-zyCt-10" value="Browser" style="text;html=1;strokeColor=none;fillColor=none;align=center;verticalAlign=middle;whiteSpace=wrap;rounded=0;" vertex="1" parent="1">
          <mxGeometry x="20" y="190" width="320" height="30" as="geometry" />
        </mxCell>
        <mxCell id="isHLi1uxbtspG-2-zyCt-11" value="CloudFront edge servers" style="text;html=1;strokeColor=none;fillColor=none;align=center;verticalAlign=middle;whiteSpace=wrap;rounded=0;" vertex="1" parent="1">
          <mxGeometry x="570" y="110" width="160" height="30" as="geometry" />
        </mxCell>
        <mxCell id="isHLi1uxbtspG-2-zyCt-12" value="" style="shape=image;verticalLabelPosition=bottom;labelBackgroundColor=default;verticalAlign=top;aspect=fixed;imageAspect=0;image=data:image/svg+xml,PHN2ZyB4bWxuczp4bGluaz0iaHR0cDovL3d3dy53My5vcmcvMTk5OS94bGluayIgeG1sbnM9Imh0dHA6Ly93d3cudzMub3JnLzIwMDAvc3ZnIiB2ZXJzaW9uPSIxLjEiIHZpZXdCb3g9IjAgMCA4MCA4MCIgaGVpZ2h0PSI4MHB4IiB3aWR0aD0iODBweCI+JiN4YTsgICAgJiN4YTsgICAgPHRpdGxlPkljb24tQXJjaGl0ZWN0dXJlLzY0L0FyY2hfQW1hem9uLUNsb3VkRnJvbnRfNjQ8L3RpdGxlPiYjeGE7ICAgIDxkZXNjPkNyZWF0ZWQgd2l0aCBTa2V0Y2guPC9kZXNjPiYjeGE7ICAgIDxkZWZzPiYjeGE7ICAgICAgICA8bGluZWFyR3JhZGllbnQgaWQ9ImxpbmVhckdyYWRpZW50LTEiIHkyPSIwJSIgeDI9IjEwMCUiIHkxPSIxMDAlIiB4MT0iMCUiPiYjeGE7ICAgICAgICAgICAgPHN0b3Agb2Zmc2V0PSIwJSIgc3RvcC1jb2xvcj0iIzREMjdBOCIvPiYjeGE7ICAgICAgICAgICAgPHN0b3Agb2Zmc2V0PSIxMDAlIiBzdG9wLWNvbG9yPSIjQTE2NkZGIi8+JiN4YTsgICAgICAgIDwvbGluZWFyR3JhZGllbnQ+JiN4YTsgICAgPC9kZWZzPiYjeGE7ICAgIDxnIGZpbGwtcnVsZT0iZXZlbm9kZCIgZmlsbD0ibm9uZSIgc3Ryb2tlLXdpZHRoPSIxIiBzdHJva2U9Im5vbmUiIGlkPSJJY29uLUFyY2hpdGVjdHVyZS82NC9BcmNoX0FtYXpvbi1DbG91ZEZyb250XzY0Ij4mI3hhOyAgICAgICAgPGcgZmlsbD0idXJsKCNsaW5lYXJHcmFkaWVudC0xKSIgaWQ9Ikljb24tQXJjaGl0ZWN0dXJlLUJHLzY0L05ldHdvcmtpbmctQ29udGVudC1EZWxpdmVyeSI+JiN4YTsgICAgICAgICAgICA8cmVjdCBoZWlnaHQ9IjgwIiB3aWR0aD0iODAiIHk9IjAiIHg9IjAiIGlkPSJSZWN0YW5nbGUiLz4mI3hhOyAgICAgICAgPC9nPiYjeGE7ICAgICAgICA8cGF0aCBmaWxsPSIjRkZGRkZGIiBpZD0iQW1hem9uLUNsb3VkRnJvbnRfSWNvbl82NF9TcXVpZCIgZD0iTTU1LjEyMiw1Mi4xMjMgQzU1LjEyMiw1MC40NjkgNTMuNzc2LDQ5LjEyMyA1Mi4xMjIsNDkuMTIzIEM1MC40NjgsNDkuMTIzIDQ5LjEyMiw1MC40NjkgNDkuMTIyLDUyLjEyMyBDNDkuMTIyLDUzLjc3NyA1MC40NjgsNTUuMTIzIDUyLjEyMiw1NS4xMjMgQzUzLjc3Niw1NS4xMjMgNTUuMTIyLDUzLjc3NyA1NS4xMjIsNTIuMTIzIEw1NS4xMjIsNTIuMTIzIFogTTU3LjEyMiw1Mi4xMjMgQzU3LjEyMiw1NC44OCA1NC44NzksNTcuMTIzIDUyLjEyMiw1Ny4xMjMgQzQ5LjM2NSw1Ny4xMjMgNDcuMTIyLDU0Ljg4IDQ3LjEyMiw1Mi4xMjMgQzQ3LjEyMiw0OS4zNjYgNDkuMzY1LDQ3LjEyMyA1Mi4xMjIsNDcuMTIzIEM1NC44NzksNDcuMTIzIDU3LjEyMiw0OS4zNjYgNTcuMTIyLDUyLjEyMyBMNTcuMTIyLDUyLjEyMyBaIE0zMC4zOTIsMzcuNjkyIEMzMC4zOTIsMzYuMDM4IDI5LjA0NiwzNC42OTIgMjcuMzkyLDM0LjY5MiBDMjUuNzM3LDM0LjY5MiAyNC4zOTIsMzYuMDM4IDI0LjM5MiwzNy42OTIgQzI0LjM5MiwzOS4zNDYgMjUuNzM3LDQwLjY5MiAyNy4zOTIsNDAuNjkyIEMyOS4wNDYsNDAuNjkyIDMwLjM5MiwzOS4zNDYgMzAuMzkyLDM3LjY5MiBMMzAuMzkyLDM3LjY5MiBaIE0zMi4zOTIsMzcuNjkyIEMzMi4zOTIsNDAuNDQ5IDMwLjE0OCw0Mi42OTIgMjcuMzkyLDQyLjY5MiBDMjQuNjM1LDQyLjY5MiAyMi4zOTIsNDAuNDQ5IDIyLjM5MiwzNy42OTIgQzIyLjM5MiwzNC45MzUgMjQuNjM1LDMyLjY5MiAyNy4zOTIsMzIuNjkyIEMzMC4xNDgsMzIuNjkyIDMyLjM5MiwzNC45MzUgMzIuMzkyLDM3LjY5MiBMMzIuMzkyLDM3LjY5MiBaIE0zOS43MywyMi4wMDcgQzM5LjczLDIzLjY2MSA0MS4wNzYsMjUuMDA3IDQyLjczLDI1LjAwNyBDNDQuMzg1LDI1LjAwNyA0NS43MywyMy42NjEgNDUuNzMsMjIuMDA3IEM0NS43MywyMC4zNTIgNDQuMzg1LDE5LjAwNyA0Mi43MywxOS4wMDcgQzQxLjA3NiwxOS4wMDcgMzkuNzMsMjAuMzUyIDM5LjczLDIyLjAwNyBMMzkuNzMsMjIuMDA3IFogTTM3LjczLDIyLjAwNyBDMzcuNzMsMTkuMjUgMzkuOTc0LDE3LjAwNyA0Mi43MywxNy4wMDcgQzQ1LjQ4NywxNy4wMDcgNDcuNzMsMTkuMjUgNDcuNzMsMjIuMDA3IEM0Ny43MywyNC43NjQgNDUuNDg3LDI3LjAwNyA0Mi43MywyNy4wMDcgQzM5Ljk3NCwyNy4wMDcgMzcuNzMsMjQuNzY0IDM3LjczLDIyLjAwNyBMMzcuNzMsMjIuMDA3IFogTTY2LDQwIEM2NiwzMC43MjcgNjEuMDI4LDIyLjE0OCA1My4wMTIsMTcuNTA5IEM1MS41NzUsMTcuNzk5IDUwLjE4NSwxOC4xOTYgNDguNDUxLDE4LjgyMyBMNDcuNzcxLDE2Ljk0MiBDNDguNjc2LDE2LjYxNiA0OS40ODYsMTYuMzUyIDUwLjI2NiwxNi4xMjYgQzQ3LjA0NiwxNC43MzcgNDMuNTQ4LDE0IDQwLDE0IEMzOC4zMTEsMTQgMzYuNjQ5LDE0LjE3NSAzNS4wMjUsMTQuNDkyIEMzNi4yMDEsMTUuMTggMzcuMjQ0LDE1Ljg2NiAzOC4yNTcsMTYuNjM0IEwzNy4wNDgsMTguMjI3IEMzNS42MiwxNy4xNDUgMzQuMTQsMTYuMjI4IDMyLjE5NywxNS4yMSBDMjIuMzc4LDE4LjI5OCAxNS4zMDYsMjYuOTU4IDE0LjE4MywzNy4xMjggQzE2LjI0MiwzNi43MTEgMTguMjE5LDM2LjQ4NCAyMC40MTQsMzYuNDMgTDIwLjQ2MywzOC40MjkgQzE4LjE2MywzOC40ODYgMTYuMTg3LDM4LjczIDE0LjAyNywzOS4yMDUgQzE0LjAxOCwzOS40NyAxNCwzOS43MzggMTQsNDAgQzE0LDQ4LjY1OCAxOC4yODMsNTYuNjM2IDI1LjMyNyw2MS40NDcgQzI0LjA3NCw1Ny43MTYgMjMuNDUsNTQuMTkgMjMuNDUsNTAuNzQ2IEMyMy40NSw0OC43ODIgMjMuNzg4LDQ3LjE2OSAyNC4xNDUsNDUuNDYyIEMyNC4yMjgsNDUuMDY3IDI0LjMxMiw0NC42NjUgMjQuMzk0LDQ0LjI0OCBMMjYuMzU3LDQ0LjYzNSBDMjYuMjczLDQ1LjA1OSAyNi4xODcsNDUuNDcgMjYuMTAzLDQ1Ljg3MyBDMjUuNzUzLDQ3LjU0NSAyNS40NSw0OC45ODkgMjUuNDUsNTAuNzQ2IEMyNS40NSw1NC42NTQgMjYuMzA4LDU4LjY5NSAyOC4wNTQsNjMuMDgzIEMzMS43NzMsNjUuMDE0IDM1Ljc4OSw2NiA0MCw2NiBDNDIuNzU2LDY2IDQ1LjQ0Niw2NS41NiA0OC4wMTIsNjQuNzE0IEM0OS4wMTksNjIuNzI3IDQ5Ljc2Niw2MC44NTIgNTAuMzksNTguNjk5IEw1Mi4zMTEsNTkuMjU2IEM1MS44NTUsNjAuODI2IDUxLjMzMiw2Mi4yNTMgNTAuNzA5LDYzLjY3NyBDNTIuMzIzLDYyLjk1MSA1My44NSw2Mi4wNTMgNTUuMjgzLDYxLjAwNSBDNTQuOTM4LDYwLjE1OSA1NC41NjgsNTkuMzE4IDU0LjE1OSw1OC40OTkgTDU1Ljk0OCw1Ny42MDQgQzU2LjI5Niw1OC4zIDU2LjYxNSw1OS4wMTIgNTYuOTIsNTkuNzI4IEM2Mi43MDUsNTQuNzc1IDY2LDQ3LjY2IDY2LDQwIEw2Niw0MCBaIE02OCw0MCBDNjgsNDguNzI3IDY0LjAzNCw1Ni43OTkgNTcuMTIxLDYyLjE0OSBDNTUuNDA5LDYzLjQ3OSA1My41NTIsNjQuNTgzIDUxLjU4OSw2NS40NzIgQzUwLjc1Niw2NS44NSA0OS45MDgsNjYuMiA0OS4wMzYsNjYuNDk0IEM0Ni4xNTYsNjcuNDkzIDQzLjExMyw2OCA0MCw2OCBDMzUuNCw2OCAzMC44MzIsNjYuODU0IDI2Ljc4OCw2NC42ODYgQzE3LjY2Nyw1OS44MDYgMTIsNTAuMzQ3IDEyLDQwIEMxMiwzOS4zMTQgMTIuMDE4LDM4Ljc5MiAxMi4wNTksMzguMzA5IEMxMi43NCwyNi42MjUgMjAuNzU2LDE2LjUxMiAzMi4wMDEsMTMuMTY2IEMzNC41NjIsMTIuMzkzIDM3LjI1NSwxMiA0MCwxMiBDNDQuODA4LDEyIDQ5LjUzOSwxMy4yMzggNTMuNjg0LDE1LjU3OSBDNjIuNTEzLDIwLjUyNSA2OCwyOS44ODQgNjgsNDAgTDY4LDQwIFogTTM3LjMxNCwyNS40NjMgTDM2LDIzLjk1NiBDMzMuNzU4LDI1LjkxMiAzMi4wMTQsMjcuOTg5IDI5Ljk3NywzMS4xMjYgTDMxLjY1NSwzMi4yMTUgQzMzLjU4MywyOS4yNDQgMzUuMjIzLDI3LjI4OCAzNy4zMTQsMjUuNDYzIEwzNy4zMTQsMjUuNDYzIFogTTM0LjI3NSwzOC40MjcgTDMzLjYyNSw0MC4zMTggQzM4LjIxOCw0MS44OTUgNDIuMjI1LDQ0LjQxMSA0Ni4yMzQsNDguMjM2IEw0Ny42MTUsNDYuNzg5IEM0My4zODksNDIuNzU4IDM5LjE1LDQwLjEwMSAzNC4yNzUsMzguNDI3IEwzNC4yNzUsMzguNDI3IFogTTQ3LjY0NiwyNi42NjggQzUxLjM5OCwzMi4zOSA1My41MTEsMzguNjcxIDUzLjkyNSw0NS4zMzggTDUxLjkyOSw0NS40NjIgQzUxLjUzNiwzOS4xNDYgNDkuNTMzLDMzLjE5MiA0NS45NzUsMjcuNzY1IEw0Ny42NDYsMjYuNjY4IFoiLz4mI3hhOyAgICA8L2c+JiN4YTs8L3N2Zz4=;" vertex="1" parent="1">
          <mxGeometry x="625.45" y="176" width="48" height="48" as="geometry" />
        </mxCell>
        <mxCell id="isHLi1uxbtspG-2-zyCt-13" value="" style="shape=image;verticalLabelPosition=bottom;labelBackgroundColor=default;verticalAlign=top;aspect=fixed;imageAspect=0;image=data:image/svg+xml,PHN2ZyB4bWxuczp4bGluaz0iaHR0cDovL3d3dy53My5vcmcvMTk5OS94bGluayIgeG1sbnM9Imh0dHA6Ly93d3cudzMub3JnLzIwMDAvc3ZnIiB2ZXJzaW9uPSIxLjEiIHZpZXdCb3g9IjAgMCA4MCA4MCIgaGVpZ2h0PSI4MHB4IiB3aWR0aD0iODBweCI+JiN4YTsgICAgJiN4YTsgICAgPHRpdGxlPkljb24tQXJjaGl0ZWN0dXJlLzY0L0FyY2hfQW1hem9uLUNsb3VkRnJvbnRfNjQ8L3RpdGxlPiYjeGE7ICAgIDxkZXNjPkNyZWF0ZWQgd2l0aCBTa2V0Y2guPC9kZXNjPiYjeGE7ICAgIDxkZWZzPiYjeGE7ICAgICAgICA8bGluZWFyR3JhZGllbnQgaWQ9ImxpbmVhckdyYWRpZW50LTEiIHkyPSIwJSIgeDI9IjEwMCUiIHkxPSIxMDAlIiB4MT0iMCUiPiYjeGE7ICAgICAgICAgICAgPHN0b3Agb2Zmc2V0PSIwJSIgc3RvcC1jb2xvcj0iIzREMjdBOCIvPiYjeGE7ICAgICAgICAgICAgPHN0b3Agb2Zmc2V0PSIxMDAlIiBzdG9wLWNvbG9yPSIjQTE2NkZGIi8+JiN4YTsgICAgICAgIDwvbGluZWFyR3JhZGllbnQ+JiN4YTsgICAgPC9kZWZzPiYjeGE7ICAgIDxnIGZpbGwtcnVsZT0iZXZlbm9kZCIgZmlsbD0ibm9uZSIgc3Ryb2tlLXdpZHRoPSIxIiBzdHJva2U9Im5vbmUiIGlkPSJJY29uLUFyY2hpdGVjdHVyZS82NC9BcmNoX0FtYXpvbi1DbG91ZEZyb250XzY0Ij4mI3hhOyAgICAgICAgPGcgZmlsbD0idXJsKCNsaW5lYXJHcmFkaWVudC0xKSIgaWQ9Ikljb24tQXJjaGl0ZWN0dXJlLUJHLzY0L05ldHdvcmtpbmctQ29udGVudC1EZWxpdmVyeSI+JiN4YTsgICAgICAgICAgICA8cmVjdCBoZWlnaHQ9IjgwIiB3aWR0aD0iODAiIHk9IjAiIHg9IjAiIGlkPSJSZWN0YW5nbGUiLz4mI3hhOyAgICAgICAgPC9nPiYjeGE7ICAgICAgICA8cGF0aCBmaWxsPSIjRkZGRkZGIiBpZD0iQW1hem9uLUNsb3VkRnJvbnRfSWNvbl82NF9TcXVpZCIgZD0iTTU1LjEyMiw1Mi4xMjMgQzU1LjEyMiw1MC40NjkgNTMuNzc2LDQ5LjEyMyA1Mi4xMjIsNDkuMTIzIEM1MC40NjgsNDkuMTIzIDQ5LjEyMiw1MC40NjkgNDkuMTIyLDUyLjEyMyBDNDkuMTIyLDUzLjc3NyA1MC40NjgsNTUuMTIzIDUyLjEyMiw1NS4xMjMgQzUzLjc3Niw1NS4xMjMgNTUuMTIyLDUzLjc3NyA1NS4xMjIsNTIuMTIzIEw1NS4xMjIsNTIuMTIzIFogTTU3LjEyMiw1Mi4xMjMgQzU3LjEyMiw1NC44OCA1NC44NzksNTcuMTIzIDUyLjEyMiw1Ny4xMjMgQzQ5LjM2NSw1Ny4xMjMgNDcuMTIyLDU0Ljg4IDQ3LjEyMiw1Mi4xMjMgQzQ3LjEyMiw0OS4zNjYgNDkuMzY1LDQ3LjEyMyA1Mi4xMjIsNDcuMTIzIEM1NC44NzksNDcuMTIzIDU3LjEyMiw0OS4zNjYgNTcuMTIyLDUyLjEyMyBMNTcuMTIyLDUyLjEyMyBaIE0zMC4zOTIsMzcuNjkyIEMzMC4zOTIsMzYuMDM4IDI5LjA0NiwzNC42OTIgMjcuMzkyLDM0LjY5MiBDMjUuNzM3LDM0LjY5MiAyNC4zOTIsMzYuMDM4IDI0LjM5MiwzNy42OTIgQzI0LjM5MiwzOS4zNDYgMjUuNzM3LDQwLjY5MiAyNy4zOTIsNDAuNjkyIEMyOS4wNDYsNDAuNjkyIDMwLjM5MiwzOS4zNDYgMzAuMzkyLDM3LjY5MiBMMzAuMzkyLDM3LjY5MiBaIE0zMi4zOTIsMzcuNjkyIEMzMi4zOTIsNDAuNDQ5IDMwLjE0OCw0Mi42OTIgMjcuMzkyLDQyLjY5MiBDMjQuNjM1LDQyLjY5MiAyMi4zOTIsNDAuNDQ5IDIyLjM5MiwzNy42OTIgQzIyLjM5MiwzNC45MzUgMjQuNjM1LDMyLjY5MiAyNy4zOTIsMzIuNjkyIEMzMC4xNDgsMzIuNjkyIDMyLjM5MiwzNC45MzUgMzIuMzkyLDM3LjY5MiBMMzIuMzkyLDM3LjY5MiBaIE0zOS43MywyMi4wMDcgQzM5LjczLDIzLjY2MSA0MS4wNzYsMjUuMDA3IDQyLjczLDI1LjAwNyBDNDQuMzg1LDI1LjAwNyA0NS43MywyMy42NjEgNDUuNzMsMjIuMDA3IEM0NS43MywyMC4zNTIgNDQuMzg1LDE5LjAwNyA0Mi43MywxOS4wMDcgQzQxLjA3NiwxOS4wMDcgMzkuNzMsMjAuMzUyIDM5LjczLDIyLjAwNyBMMzkuNzMsMjIuMDA3IFogTTM3LjczLDIyLjAwNyBDMzcuNzMsMTkuMjUgMzkuOTc0LDE3LjAwNyA0Mi43MywxNy4wMDcgQzQ1LjQ4NywxNy4wMDcgNDcuNzMsMTkuMjUgNDcuNzMsMjIuMDA3IEM0Ny43MywyNC43NjQgNDUuNDg3LDI3LjAwNyA0Mi43MywyNy4wMDcgQzM5Ljk3NCwyNy4wMDcgMzcuNzMsMjQuNzY0IDM3LjczLDIyLjAwNyBMMzcuNzMsMjIuMDA3IFogTTY2LDQwIEM2NiwzMC43MjcgNjEuMDI4LDIyLjE0OCA1My4wMTIsMTcuNTA5IEM1MS41NzUsMTcuNzk5IDUwLjE4NSwxOC4xOTYgNDguNDUxLDE4LjgyMyBMNDcuNzcxLDE2Ljk0MiBDNDguNjc2LDE2LjYxNiA0OS40ODYsMTYuMzUyIDUwLjI2NiwxNi4xMjYgQzQ3LjA0NiwxNC43MzcgNDMuNTQ4LDE0IDQwLDE0IEMzOC4zMTEsMTQgMzYuNjQ5LDE0LjE3NSAzNS4wMjUsMTQuNDkyIEMzNi4yMDEsMTUuMTggMzcuMjQ0LDE1Ljg2NiAzOC4yNTcsMTYuNjM0IEwzNy4wNDgsMTguMjI3IEMzNS42MiwxNy4xNDUgMzQuMTQsMTYuMjI4IDMyLjE5NywxNS4yMSBDMjIuMzc4LDE4LjI5OCAxNS4zMDYsMjYuOTU4IDE0LjE4MywzNy4xMjggQzE2LjI0MiwzNi43MTEgMTguMjE5LDM2LjQ4NCAyMC40MTQsMzYuNDMgTDIwLjQ2MywzOC40MjkgQzE4LjE2MywzOC40ODYgMTYuMTg3LDM4LjczIDE0LjAyNywzOS4yMDUgQzE0LjAxOCwzOS40NyAxNCwzOS43MzggMTQsNDAgQzE0LDQ4LjY1OCAxOC4yODMsNTYuNjM2IDI1LjMyNyw2MS40NDcgQzI0LjA3NCw1Ny43MTYgMjMuNDUsNTQuMTkgMjMuNDUsNTAuNzQ2IEMyMy40NSw0OC43ODIgMjMuNzg4LDQ3LjE2OSAyNC4xNDUsNDUuNDYyIEMyNC4yMjgsNDUuMDY3IDI0LjMxMiw0NC42NjUgMjQuMzk0LDQ0LjI0OCBMMjYuMzU3LDQ0LjYzNSBDMjYuMjczLDQ1LjA1OSAyNi4xODcsNDUuNDcgMjYuMTAzLDQ1Ljg3MyBDMjUuNzUzLDQ3LjU0NSAyNS40NSw0OC45ODkgMjUuNDUsNTAuNzQ2IEMyNS40NSw1NC42NTQgMjYuMzA4LDU4LjY5NSAyOC4wNTQsNjMuMDgzIEMzMS43NzMsNjUuMDE0IDM1Ljc4OSw2NiA0MCw2NiBDNDIuNzU2LDY2IDQ1LjQ0Niw2NS41NiA0OC4wMTIsNjQuNzE0IEM0OS4wMTksNjIuNzI3IDQ5Ljc2Niw2MC44NTIgNTAuMzksNTguNjk5IEw1Mi4zMTEsNTkuMjU2IEM1MS44NTUsNjAuODI2IDUxLjMzMiw2Mi4yNTMgNTAuNzA5LDYzLjY3NyBDNTIuMzIzLDYyLjk1MSA1My44NSw2Mi4wNTMgNTUuMjgzLDYxLjAwNSBDNTQuOTM4LDYwLjE1OSA1NC41NjgsNTkuMzE4IDU0LjE1OSw1OC40OTkgTDU1Ljk0OCw1Ny42MDQgQzU2LjI5Niw1OC4zIDU2LjYxNSw1OS4wMTIgNTYuOTIsNTkuNzI4IEM2Mi43MDUsNTQuNzc1IDY2LDQ3LjY2IDY2LDQwIEw2Niw0MCBaIE02OCw0MCBDNjgsNDguNzI3IDY0LjAzNCw1Ni43OTkgNTcuMTIxLDYyLjE0OSBDNTUuNDA5LDYzLjQ3OSA1My41NTIsNjQuNTgzIDUxLjU4OSw2NS40NzIgQzUwLjc1Niw2NS44NSA0OS45MDgsNjYuMiA0OS4wMzYsNjYuNDk0IEM0Ni4xNTYsNjcuNDkzIDQzLjExMyw2OCA0MCw2OCBDMzUuNCw2OCAzMC44MzIsNjYuODU0IDI2Ljc4OCw2NC42ODYgQzE3LjY2Nyw1OS44MDYgMTIsNTAuMzQ3IDEyLDQwIEMxMiwzOS4zMTQgMTIuMDE4LDM4Ljc5MiAxMi4wNTksMzguMzA5IEMxMi43NCwyNi42MjUgMjAuNzU2LDE2LjUxMiAzMi4wMDEsMTMuMTY2IEMzNC41NjIsMTIuMzkzIDM3LjI1NSwxMiA0MCwxMiBDNDQuODA4LDEyIDQ5LjUzOSwxMy4yMzggNTMuNjg0LDE1LjU3OSBDNjIuNTEzLDIwLjUyNSA2OCwyOS44ODQgNjgsNDAgTDY4LDQwIFogTTM3LjMxNCwyNS40NjMgTDM2LDIzLjk1NiBDMzMuNzU4LDI1LjkxMiAzMi4wMTQsMjcuOTg5IDI5Ljk3NywzMS4xMjYgTDMxLjY1NSwzMi4yMTUgQzMzLjU4MywyOS4yNDQgMzUuMjIzLDI3LjI4OCAzNy4zMTQsMjUuNDYzIEwzNy4zMTQsMjUuNDYzIFogTTM0LjI3NSwzOC40MjcgTDMzLjYyNSw0MC4zMTggQzM4LjIxOCw0MS44OTUgNDIuMjI1LDQ0LjQxMSA0Ni4yMzQsNDguMjM2IEw0Ny42MTUsNDYuNzg5IEM0My4zODksNDIuNzU4IDM5LjE1LDQwLjEwMSAzNC4yNzUsMzguNDI3IEwzNC4yNzUsMzguNDI3IFogTTQ3LjY0NiwyNi42NjggQzUxLjM5OCwzMi4zOSA1My41MTEsMzguNjcxIDUzLjkyNSw0NS4zMzggTDUxLjkyOSw0NS40NjIgQzUxLjUzNiwzOS4xNDYgNDkuNTMzLDMzLjE5MiA0NS45NzUsMjcuNzY1IEw0Ny42NDYsMjYuNjY4IFoiLz4mI3hhOyAgICA8L2c+JiN4YTs8L3N2Zz4=;" vertex="1" parent="1">
          <mxGeometry x="626" y="236" width="48" height="48" as="geometry" />
        </mxCell>
        <mxCell id="isHLi1uxbtspG-2-zyCt-14" value="" style="shape=image;verticalLabelPosition=bottom;labelBackgroundColor=default;verticalAlign=top;aspect=fixed;imageAspect=0;image=data:image/svg+xml,PHN2ZyB4bWxuczp4bGluaz0iaHR0cDovL3d3dy53My5vcmcvMTk5OS94bGluayIgeG1sbnM9Imh0dHA6Ly93d3cudzMub3JnLzIwMDAvc3ZnIiB2ZXJzaW9uPSIxLjEiIHZpZXdCb3g9IjAgMCA4MCA4MCIgaGVpZ2h0PSI4MHB4IiB3aWR0aD0iODBweCI+JiN4YTsgICAgJiN4YTsgICAgPHRpdGxlPkljb24tQXJjaGl0ZWN0dXJlLzY0L0FyY2hfQW1hem9uLUNsb3VkRnJvbnRfNjQ8L3RpdGxlPiYjeGE7ICAgIDxkZXNjPkNyZWF0ZWQgd2l0aCBTa2V0Y2guPC9kZXNjPiYjeGE7ICAgIDxkZWZzPiYjeGE7ICAgICAgICA8bGluZWFyR3JhZGllbnQgaWQ9ImxpbmVhckdyYWRpZW50LTEiIHkyPSIwJSIgeDI9IjEwMCUiIHkxPSIxMDAlIiB4MT0iMCUiPiYjeGE7ICAgICAgICAgICAgPHN0b3Agb2Zmc2V0PSIwJSIgc3RvcC1jb2xvcj0iIzREMjdBOCIvPiYjeGE7ICAgICAgICAgICAgPHN0b3Agb2Zmc2V0PSIxMDAlIiBzdG9wLWNvbG9yPSIjQTE2NkZGIi8+JiN4YTsgICAgICAgIDwvbGluZWFyR3JhZGllbnQ+JiN4YTsgICAgPC9kZWZzPiYjeGE7ICAgIDxnIGZpbGwtcnVsZT0iZXZlbm9kZCIgZmlsbD0ibm9uZSIgc3Ryb2tlLXdpZHRoPSIxIiBzdHJva2U9Im5vbmUiIGlkPSJJY29uLUFyY2hpdGVjdHVyZS82NC9BcmNoX0FtYXpvbi1DbG91ZEZyb250XzY0Ij4mI3hhOyAgICAgICAgPGcgZmlsbD0idXJsKCNsaW5lYXJHcmFkaWVudC0xKSIgaWQ9Ikljb24tQXJjaGl0ZWN0dXJlLUJHLzY0L05ldHdvcmtpbmctQ29udGVudC1EZWxpdmVyeSI+JiN4YTsgICAgICAgICAgICA8cmVjdCBoZWlnaHQ9IjgwIiB3aWR0aD0iODAiIHk9IjAiIHg9IjAiIGlkPSJSZWN0YW5nbGUiLz4mI3hhOyAgICAgICAgPC9nPiYjeGE7ICAgICAgICA8cGF0aCBmaWxsPSIjRkZGRkZGIiBpZD0iQW1hem9uLUNsb3VkRnJvbnRfSWNvbl82NF9TcXVpZCIgZD0iTTU1LjEyMiw1Mi4xMjMgQzU1LjEyMiw1MC40NjkgNTMuNzc2LDQ5LjEyMyA1Mi4xMjIsNDkuMTIzIEM1MC40NjgsNDkuMTIzIDQ5LjEyMiw1MC40NjkgNDkuMTIyLDUyLjEyMyBDNDkuMTIyLDUzLjc3NyA1MC40NjgsNTUuMTIzIDUyLjEyMiw1NS4xMjMgQzUzLjc3Niw1NS4xMjMgNTUuMTIyLDUzLjc3NyA1NS4xMjIsNTIuMTIzIEw1NS4xMjIsNTIuMTIzIFogTTU3LjEyMiw1Mi4xMjMgQzU3LjEyMiw1NC44OCA1NC44NzksNTcuMTIzIDUyLjEyMiw1Ny4xMjMgQzQ5LjM2NSw1Ny4xMjMgNDcuMTIyLDU0Ljg4IDQ3LjEyMiw1Mi4xMjMgQzQ3LjEyMiw0OS4zNjYgNDkuMzY1LDQ3LjEyMyA1Mi4xMjIsNDcuMTIzIEM1NC44NzksNDcuMTIzIDU3LjEyMiw0OS4zNjYgNTcuMTIyLDUyLjEyMyBMNTcuMTIyLDUyLjEyMyBaIE0zMC4zOTIsMzcuNjkyIEMzMC4zOTIsMzYuMDM4IDI5LjA0NiwzNC42OTIgMjcuMzkyLDM0LjY5MiBDMjUuNzM3LDM0LjY5MiAyNC4zOTIsMzYuMDM4IDI0LjM5MiwzNy42OTIgQzI0LjM5MiwzOS4zNDYgMjUuNzM3LDQwLjY5MiAyNy4zOTIsNDAuNjkyIEMyOS4wNDYsNDAuNjkyIDMwLjM5MiwzOS4zNDYgMzAuMzkyLDM3LjY5MiBMMzAuMzkyLDM3LjY5MiBaIE0zMi4zOTIsMzcuNjkyIEMzMi4zOTIsNDAuNDQ5IDMwLjE0OCw0Mi42OTIgMjcuMzkyLDQyLjY5MiBDMjQuNjM1LDQyLjY5MiAyMi4zOTIsNDAuNDQ5IDIyLjM5MiwzNy42OTIgQzIyLjM5MiwzNC45MzUgMjQuNjM1LDMyLjY5MiAyNy4zOTIsMzIuNjkyIEMzMC4xNDgsMzIuNjkyIDMyLjM5MiwzNC45MzUgMzIuMzkyLDM3LjY5MiBMMzIuMzkyLDM3LjY5MiBaIE0zOS43MywyMi4wMDcgQzM5LjczLDIzLjY2MSA0MS4wNzYsMjUuMDA3IDQyLjczLDI1LjAwNyBDNDQuMzg1LDI1LjAwNyA0NS43MywyMy42NjEgNDUuNzMsMjIuMDA3IEM0NS43MywyMC4zNTIgNDQuMzg1LDE5LjAwNyA0Mi43MywxOS4wMDcgQzQxLjA3NiwxOS4wMDcgMzkuNzMsMjAuMzUyIDM5LjczLDIyLjAwNyBMMzkuNzMsMjIuMDA3IFogTTM3LjczLDIyLjAwNyBDMzcuNzMsMTkuMjUgMzkuOTc0LDE3LjAwNyA0Mi43MywxNy4wMDcgQzQ1LjQ4NywxNy4wMDcgNDcuNzMsMTkuMjUgNDcuNzMsMjIuMDA3IEM0Ny43MywyNC43NjQgNDUuNDg3LDI3LjAwNyA0Mi43MywyNy4wMDcgQzM5Ljk3NCwyNy4wMDcgMzcuNzMsMjQuNzY0IDM3LjczLDIyLjAwNyBMMzcuNzMsMjIuMDA3IFogTTY2LDQwIEM2NiwzMC43MjcgNjEuMDI4LDIyLjE0OCA1My4wMTIsMTcuNTA5IEM1MS41NzUsMTcuNzk5IDUwLjE4NSwxOC4xOTYgNDguNDUxLDE4LjgyMyBMNDcuNzcxLDE2Ljk0MiBDNDguNjc2LDE2LjYxNiA0OS40ODYsMTYuMzUyIDUwLjI2NiwxNi4xMjYgQzQ3LjA0NiwxNC43MzcgNDMuNTQ4LDE0IDQwLDE0IEMzOC4zMTEsMTQgMzYuNjQ5LDE0LjE3NSAzNS4wMjUsMTQuNDkyIEMzNi4yMDEsMTUuMTggMzcuMjQ0LDE1Ljg2NiAzOC4yNTcsMTYuNjM0IEwzNy4wNDgsMTguMjI3IEMzNS42MiwxNy4xNDUgMzQuMTQsMTYuMjI4IDMyLjE5NywxNS4yMSBDMjIuMzc4LDE4LjI5OCAxNS4zMDYsMjYuOTU4IDE0LjE4MywzNy4xMjggQzE2LjI0MiwzNi43MTEgMTguMjE5LDM2LjQ4NCAyMC40MTQsMzYuNDMgTDIwLjQ2MywzOC40MjkgQzE4LjE2MywzOC40ODYgMTYuMTg3LDM4LjczIDE0LjAyNywzOS4yMDUgQzE0LjAxOCwzOS40NyAxNCwzOS43MzggMTQsNDAgQzE0LDQ4LjY1OCAxOC4yODMsNTYuNjM2IDI1LjMyNyw2MS40NDcgQzI0LjA3NCw1Ny43MTYgMjMuNDUsNTQuMTkgMjMuNDUsNTAuNzQ2IEMyMy40NSw0OC43ODIgMjMuNzg4LDQ3LjE2OSAyNC4xNDUsNDUuNDYyIEMyNC4yMjgsNDUuMDY3IDI0LjMxMiw0NC42NjUgMjQuMzk0LDQ0LjI0OCBMMjYuMzU3LDQ0LjYzNSBDMjYuMjczLDQ1LjA1OSAyNi4xODcsNDUuNDcgMjYuMTAzLDQ1Ljg3MyBDMjUuNzUzLDQ3LjU0NSAyNS40NSw0OC45ODkgMjUuNDUsNTAuNzQ2IEMyNS40NSw1NC42NTQgMjYuMzA4LDU4LjY5NSAyOC4wNTQsNjMuMDgzIEMzMS43NzMsNjUuMDE0IDM1Ljc4OSw2NiA0MCw2NiBDNDIuNzU2LDY2IDQ1LjQ0Niw2NS41NiA0OC4wMTIsNjQuNzE0IEM0OS4wMTksNjIuNzI3IDQ5Ljc2Niw2MC44NTIgNTAuMzksNTguNjk5IEw1Mi4zMTEsNTkuMjU2IEM1MS44NTUsNjAuODI2IDUxLjMzMiw2Mi4yNTMgNTAuNzA5LDYzLjY3NyBDNTIuMzIzLDYyLjk1MSA1My44NSw2Mi4wNTMgNTUuMjgzLDYxLjAwNSBDNTQuOTM4LDYwLjE1OSA1NC41NjgsNTkuMzE4IDU0LjE1OSw1OC40OTkgTDU1Ljk0OCw1Ny42MDQgQzU2LjI5Niw1OC4zIDU2LjYxNSw1OS4wMTIgNTYuOTIsNTkuNzI4IEM2Mi43MDUsNTQuNzc1IDY2LDQ3LjY2IDY2LDQwIEw2Niw0MCBaIE02OCw0MCBDNjgsNDguNzI3IDY0LjAzNCw1Ni43OTkgNTcuMTIxLDYyLjE0OSBDNTUuNDA5LDYzLjQ3OSA1My41NTIsNjQuNTgzIDUxLjU4OSw2NS40NzIgQzUwLjc1Niw2NS44NSA0OS45MDgsNjYuMiA0OS4wMzYsNjYuNDk0IEM0Ni4xNTYsNjcuNDkzIDQzLjExMyw2OCA0MCw2OCBDMzUuNCw2OCAzMC44MzIsNjYuODU0IDI2Ljc4OCw2NC42ODYgQzE3LjY2Nyw1OS44MDYgMTIsNTAuMzQ3IDEyLDQwIEMxMiwzOS4zMTQgMTIuMDE4LDM4Ljc5MiAxMi4wNTksMzguMzA5IEMxMi43NCwyNi42MjUgMjAuNzU2LDE2LjUxMiAzMi4wMDEsMTMuMTY2IEMzNC41NjIsMTIuMzkzIDM3LjI1NSwxMiA0MCwxMiBDNDQuODA4LDEyIDQ5LjUzOSwxMy4yMzggNTMuNjg0LDE1LjU3OSBDNjIuNTEzLDIwLjUyNSA2OCwyOS44ODQgNjgsNDAgTDY4LDQwIFogTTM3LjMxNCwyNS40NjMgTDM2LDIzLjk1NiBDMzMuNzU4LDI1LjkxMiAzMi4wMTQsMjcuOTg5IDI5Ljk3NywzMS4xMjYgTDMxLjY1NSwzMi4yMTUgQzMzLjU4MywyOS4yNDQgMzUuMjIzLDI3LjI4OCAzNy4zMTQsMjUuNDYzIEwzNy4zMTQsMjUuNDYzIFogTTM0LjI3NSwzOC40MjcgTDMzLjYyNSw0MC4zMTggQzM4LjIxOCw0MS44OTUgNDIuMjI1LDQ0LjQxMSA0Ni4yMzQsNDguMjM2IEw0Ny42MTUsNDYuNzg5IEM0My4zODksNDIuNzU4IDM5LjE1LDQwLjEwMSAzNC4yNzUsMzguNDI3IEwzNC4yNzUsMzguNDI3IFogTTQ3LjY0NiwyNi42NjggQzUxLjM5OCwzMi4zOSA1My41MTEsMzguNjcxIDUzLjkyNSw0NS4zMzggTDUxLjkyOSw0NS40NjIgQzUxLjUzNiwzOS4xNDYgNDkuNTMzLDMzLjE5MiA0NS45NzUsMjcuNzY1IEw0Ny42NDYsMjYuNjY4IFoiLz4mI3hhOyAgICA8L2c+JiN4YTs8L3N2Zz4=;" vertex="1" parent="1">
          <mxGeometry x="625.45" y="296" width="48" height="48" as="geometry" />
        </mxCell>
        <mxCell id="isHLi1uxbtspG-2-zyCt-15" value="" style="endArrow=none;startArrow=classic;html=1;rounded=0;exitX=0;exitY=0.5;exitDx=0;exitDy=0;endFill=0;" edge="1" source="isHLi1uxbtspG-2-zyCt-13" target="isHLi1uxbtspG-2-zyCt-6" parent="1">
          <mxGeometry width="50" height="50" relative="1" as="geometry">
            <mxPoint x="460" y="340" as="sourcePoint" />
            <mxPoint x="230" y="278" as="targetPoint" />
          </mxGeometry>
        </mxCell>
        <mxCell id="isHLi1uxbtspG-2-zyCt-16" value="If not in browser cache" style="edgeLabel;html=1;align=center;verticalAlign=middle;resizable=0;points=[];" vertex="1" connectable="0" parent="isHLi1uxbtspG-2-zyCt-15">
          <mxGeometry x="0.5212" y="2" relative="1" as="geometry">
            <mxPoint x="60" y="-2" as="offset" />
          </mxGeometry>
        </mxCell>
        <mxCell id="isHLi1uxbtspG-2-zyCt-17" value="" style="endArrow=none;startArrow=classic;html=1;rounded=0;endFill=0;" edge="1" source="isHLi1uxbtspG-2-zyCt-4" target="isHLi1uxbtspG-2-zyCt-13" parent="1">
          <mxGeometry width="50" height="50" relative="1" as="geometry">
            <mxPoint x="793.45" y="510" as="sourcePoint" />
            <mxPoint x="843.45" y="460" as="targetPoint" />
          </mxGeometry>
        </mxCell>
        <mxCell id="isHLi1uxbtspG-2-zyCt-18" value="If not in CDN cache" style="edgeLabel;html=1;align=center;verticalAlign=middle;resizable=0;points=[];" vertex="1" connectable="0" parent="isHLi1uxbtspG-2-zyCt-17">
          <mxGeometry x="-0.1909" y="-2" relative="1" as="geometry">
            <mxPoint x="-13" y="2" as="offset" />
          </mxGeometry>
        </mxCell>
      </root>
    </mxGraphModel>
  </diagram>
</mxfile>
